<?xml version="1.0" standalone="no"?>
<!DOCTYPE svg PUBLIC "-//W3C//DTD SVG 20010904//EN"
 "http://www.w3.org/TR/2001/REC-SVG-20010904/DTD/svg10.dtd">
<svg version="1.0" xmlns="http://www.w3.org/2000/svg"
 width="944.000000pt" height="944.000000pt" viewBox="0 0 944.000000 944.000000"
 preserveAspectRatio="xMidYMid meet">
<metadata>
Created by potrace 1.14, written by Peter Selinger 2001-2017
</metadata>
<g transform="translate(0.000000,944.000000) scale(0.100000,-0.100000)"
fill="#000000" stroke="none">
<path d="M4425 9322 c-1 -1 -55 -5 -119 -7 -64 -3 -129 -7 -144 -9 -15 -3 -58
-8 -97 -12 -38 -3 -79 -8 -90 -10 -11 -2 -36 -6 -55 -9 -63 -8 -235 -41 -235
-45 0 -1 -11 -3 -25 -5 -68 -9 -208 -46 -400 -106 -52 -16 -99 -29 -104 -28
-5 0 -12 -3 -15 -8 -3 -5 -31 -17 -61 -27 -30 -10 -73 -25 -95 -35 -22 -10
-76 -33 -120 -52 -89 -37 -421 -205 -435 -219 -3 -3 -39 -26 -80 -50 -41 -24
-77 -47 -80 -50 -3 -3 -30 -21 -60 -40 -30 -19 -57 -37 -60 -40 -3 -3 -16 -13
-31 -22 -25 -16 -255 -193 -275 -213 -6 -5 -37 -32 -70 -60 -75 -64 -313 -302
-379 -378 -27 -33 -62 -71 -76 -87 -14 -15 -37 -43 -50 -61 -13 -19 -34 -45
-46 -59 -24 -28 -45 -56 -118 -162 -27 -40 -53 -74 -57 -76 -5 -2 -8 -10 -8
-18 0 -8 -4 -14 -10 -14 -5 0 -10 -7 -10 -15 0 -8 -3 -15 -7 -15 -5 0 -13 -10
-19 -23 -6 -12 -29 -51 -51 -87 -90 -147 -268 -495 -253 -495 2 0 -7 -20 -19
-43 -34 -66 -138 -356 -157 -434 -1 -5 -2 -9 -4 -10 -1 -2 -3 -10 -5 -18 -2
-8 -15 -58 -29 -110 -23 -89 -28 -108 -41 -177 -3 -16 -8 -35 -10 -43 -2 -8
-7 -31 -10 -50 -3 -19 -10 -62 -16 -95 -6 -33 -13 -71 -14 -85 -2 -14 -6 -52
-10 -85 -13 -106 -14 -119 -21 -200 -8 -100 -9 -515 -1 -615 11 -137 16 -185
23 -230 4 -25 8 -58 9 -75 2 -16 6 -43 9 -60 4 -16 9 -46 12 -66 2 -20 10 -59
17 -86 8 -28 13 -60 12 -72 -1 -11 3 -21 8 -21 6 0 8 -2 5 -5 -5 -5 19 -109
44 -195 5 -19 12 -50 15 -68 3 -18 9 -35 14 -38 5 -3 9 -11 9 -19 0 -8 5 -26
11 -42 7 -15 13 -35 14 -43 4 -23 36 -112 51 -142 8 -14 14 -31 14 -38 0 -13
23 -68 46 -112 8 -15 15 -31 15 -35 1 -9 25 -64 70 -160 17 -35 29 -66 29 -69
-1 -4 2 -10 7 -13 4 -3 22 -33 38 -66 17 -33 33 -62 38 -63 4 -2 7 -8 7 -13 0
-5 18 -39 40 -75 22 -36 40 -68 40 -70 0 -1 14 -23 30 -47 17 -25 30 -49 30
-55 0 -6 4 -12 9 -14 4 -1 20 -21 34 -43 53 -79 184 -259 223 -305 12 -14 52
-61 90 -105 109 -129 383 -397 494 -485 17 -14 41 -33 53 -43 12 -10 37 -31
56 -45 19 -15 42 -34 51 -42 21 -20 141 -115 215 -170 33 -25 62 -48 63 -52 2
-5 8 -8 13 -8 10 0 62 -34 86 -57 7 -6 29 -21 50 -34 21 -13 41 -28 45 -35 5
-7 29 -22 54 -34 25 -13 50 -33 56 -46 6 -13 20 -26 32 -29 53 -15 95 -39 105
-61 6 -13 17 -24 26 -24 8 0 15 -4 15 -10 0 -5 6 -10 13 -10 30 0 85 -93 68
-116 -3 -5 -19 -18 -36 -30 -16 -11 -65 -45 -108 -75 -44 -30 -86 -58 -95 -64
-9 -5 -24 -17 -32 -25 -8 -9 -31 -27 -50 -40 -54 -38 -178 -167 -215 -224
-105 -164 -97 -356 15 -381 14 -3 33 -19 42 -36 38 -66 127 -72 214 -15 65 43
201 178 264 262 25 32 48 60 53 62 4 2 7 8 7 12 0 5 12 28 28 52 47 74 52 82
64 108 7 14 16 28 21 31 5 3 8 9 8 13 -1 3 9 27 23 54 13 26 33 75 46 108 18
50 30 67 63 88 l41 27 60 -31 c34 -16 72 -32 86 -35 20 -4 169 -55 240 -82 8
-3 21 -7 28 -9 6 -1 49 -14 95 -28 81 -25 218 -60 267 -70 14 -2 32 -7 40 -10
8 -3 31 -8 50 -11 19 -3 51 -9 70 -12 19 -4 45 -7 58 -7 12 -1 22 -5 22 -9 0
-5 9 -5 20 -2 11 3 20 3 20 -2 0 -4 17 -9 38 -9 34 -2 115 -11 170 -19 164
-26 757 -26 912 0 14 2 48 6 75 9 28 3 66 8 85 11 19 3 49 7 65 10 77 10 108
15 114 19 3 3 27 7 51 11 25 3 53 8 62 11 9 3 25 7 35 9 10 2 54 13 98 25 44
11 91 23 105 26 33 7 120 34 145 44 18 8 63 23 75 25 19 3 147 50 169 61 14 8
31 14 37 14 6 0 24 6 40 14 16 8 62 28 103 46 40 17 122 56 181 86 59 30 113
54 119 54 6 0 11 5 11 10 0 6 8 10 18 10 10 0 22 4 27 9 6 5 35 16 65 26 67
22 173 88 220 139 19 20 82 72 140 114 100 73 128 94 154 117 6 6 36 30 66 55
87 71 99 82 154 132 29 27 61 48 74 48 12 0 22 5 22 10 0 6 6 10 14 10 8 0 52
36 98 80 111 108 112 108 140 66 12 -19 31 -40 43 -47 22 -14 105 -30 105 -20
0 4 9 7 19 8 24 2 92 45 138 86 68 62 103 98 113 117 9 17 13 18 38 5 15 -8
35 -12 45 -9 12 4 17 0 17 -15 0 -12 5 -21 10 -21 6 0 10 -6 10 -13 0 -7 15
-21 34 -31 47 -25 99 -15 143 29 28 28 33 39 27 62 -12 51 -46 76 -106 78 -33
1 -65 9 -82 20 -33 22 -64 26 -88 14 -12 -7 -20 -4 -26 8 -7 11 -22 17 -46 17
-31 0 -44 -8 -94 -60 -59 -61 -134 -124 -148 -124 -5 0 12 19 37 43 82 78 115
134 96 165 -14 21 -43 13 -77 -20 -18 -18 -31 -26 -28 -18 41 115 95 233 119
259 11 11 19 22 19 25 0 2 22 37 48 78 60 90 130 210 130 222 0 5 4 12 9 15 5
3 24 37 42 74 19 37 38 70 43 73 4 3 8 12 8 19 0 8 9 29 21 47 l21 33 -7 -30
c-4 -16 -9 -43 -12 -60 -7 -48 -38 -150 -83 -280 -56 -162 -61 -183 -48 -207
21 -42 85 -1 109 70 6 17 15 32 21 32 6 0 5 -7 -3 -17 -8 -9 -13 -18 -11 -20
2 -2 -2 -20 -8 -41 -16 -60 -12 -96 13 -118 12 -11 29 -19 37 -18 8 1 20 2 26
3 20 2 62 51 84 98 20 43 89 239 95 273 2 8 4 15 5 15 1 0 3 7 5 15 1 8 10 40
18 70 34 117 55 341 30 317 -3 -4 -12 2 -20 13 -33 46 -106 11 -119 -57 -9
-48 -21 -40 -14 10 7 52 -5 93 -30 100 -18 5 -17 9 11 77 31 76 109 300 114
328 2 9 4 17 5 17 7 0 38 150 33 159 -4 6 -2 7 3 3 5 -5 14 16 22 50 6 32 14
65 16 73 2 8 7 33 11 55 5 22 9 45 11 50 10 43 27 147 30 180 1 22 3 40 4 40
3 0 10 42 15 95 3 30 8 84 12 120 14 138 7 736 -10 855 -3 17 -8 57 -12 90 -4
32 -9 68 -11 79 -2 11 -6 36 -9 56 -3 20 -8 47 -11 60 -3 14 -7 34 -8 45 -2
11 -7 36 -10 55 -4 19 -8 42 -10 50 -2 8 -6 22 -9 30 -3 8 -13 47 -21 85 -9
39 -18 77 -20 86 -11 44 -69 231 -87 279 -46 125 -62 167 -74 195 -7 17 -25
59 -40 93 -52 127 -221 454 -237 460 -4 2 -8 7 -8 12 0 11 -63 114 -72 118 -5
2 -8 8 -8 13 0 17 -201 299 -267 374 -10 11 -38 45 -63 75 -124 150 -334 360
-510 510 -14 12 -34 29 -45 38 -129 109 -478 346 -595 404 -14 7 -27 15 -30
18 -3 3 -61 34 -130 69 -69 35 -136 72 -150 81 -78 54 -400 215 -530 266 -25
9 -49 20 -55 24 -14 10 -79 30 -86 27 -4 -1 -16 7 -28 17 -12 11 -21 16 -21
13 0 -3 -37 7 -82 23 -121 42 -367 111 -443 124 -16 3 -41 8 -55 11 -28 7 -49
11 -135 25 -33 6 -73 13 -90 16 -77 14 -244 31 -380 38 -44 3 -81 6 -82 7 -8
5 -31 4 -50 -3 -13 -4 -23 -4 -23 0 0 6 -228 11 -235 4z m4442 -6434 c-3 -8
-6 -5 -6 6 -1 11 2 17 5 13 3 -3 4 -12 1 -19z m-16 -68 c-9 -27 -19 -50 -23
-50 -4 0 -2 15 4 33 5 17 12 40 15 50 3 9 9 17 12 17 4 0 0 -22 -8 -50z m-31
-89 c-9 -31 -29 -71 -30 -59 0 4 4 17 9 30 5 13 12 31 15 41 9 29 15 19 6 -12z
m-5970 -1785 c0 -2 -19 -16 -42 -32 -107 -72 -209 -156 -291 -239 -28 -29
-111 -142 -113 -154 0 -3 -5 -17 -11 -31 -6 -14 -19 -43 -28 -65 -11 -29 -14
-32 -9 -10 4 17 8 37 8 45 2 16 36 92 46 100 3 3 18 24 34 47 28 42 163 175
226 223 104 80 180 129 180 116z m38 -183 c-18 -35 -53 -96 -75 -131 -31 -50
-140 -176 -204 -238 -77 -73 -111 -95 -52 -33 84 88 118 126 143 158 14 18 35
45 46 59 20 26 72 112 103 170 14 27 43 54 50 47 1 -2 -3 -16 -11 -32z"/>
</g>
</svg>
