<svg width="23" height="23" viewBox="0 0 23 23" fill="none" xmlns="http://www.w3.org/2000/svg">
<path d="M11.3894 15.8423C11.3894 18.5068 13.5494 20.6668 16.2139 20.6668C18.8784 20.6668 21.0385 18.5068 21.0385 15.8423C21.0385 13.1777 18.8784 11.0177 16.2139 11.0177C13.5494 11.0177 11.3894 13.1777 11.3894 15.8423ZM11.3894 15.8423C11.3894 14.7559 11.7484 13.7535 12.3543 12.9471V4.26332M11.3894 15.8423C11.3894 16.6387 11.5823 17.39 11.924 18.052C11.1111 18.7387 9.23359 19.2195 7.04725 19.2195C4.11627 19.2195 1.74023 18.3555 1.74023 17.2896V4.26332M12.3543 4.26332C12.3543 5.32913 9.97824 6.19315 7.04725 6.19315C4.11627 6.19315 1.74023 5.32913 1.74023 4.26332M12.3543 4.26332C12.3543 3.19751 9.97824 2.3335 7.04725 2.3335C4.11627 2.3335 1.74023 3.19751 1.74023 4.26332M1.74023 12.9475C1.74023 14.0133 4.11627 14.8774 7.04725 14.8774C9.15945 14.8774 10.9834 14.4287 11.8377 13.7791M12.3543 8.60543C12.3543 9.67124 9.97824 10.5353 7.04725 10.5353C4.11627 10.5353 1.74023 9.67124 1.74023 8.60543" stroke="black" stroke-width="1.8" stroke-linecap="round" stroke-linejoin="round"/>
<path d="M16.1929 18.7366C15.8856 18.7366 15.6161 18.6908 15.3843 18.5992C15.158 18.5076 14.9666 18.3836 14.8103 18.2273C14.6593 18.0709 14.5435 17.8904 14.4626 17.6855C14.3871 17.4807 14.3494 17.2624 14.3494 17.0306C14.3494 16.9875 14.3494 16.9471 14.3494 16.9093C14.3548 16.8716 14.3602 16.8339 14.3656 16.7961H13.7915V16.0684H14.6647L15.7078 15.5186H13.7915V14.7909H16.6942C16.7211 14.7101 16.7346 14.6238 16.7346 14.5322C16.7346 14.3004 16.6726 14.1333 16.5487 14.0309C16.4301 13.9285 16.2603 13.8773 16.0393 13.8773C15.8452 13.8773 15.6593 13.9177 15.4814 13.9986C15.3089 14.074 15.1606 14.1818 15.0367 14.322L14.4383 13.57C14.6108 13.3706 14.8426 13.2089 15.1337 13.0849C15.4302 12.9609 15.7482 12.8989 16.0878 12.8989C16.3627 12.8989 16.6079 12.9394 16.8236 13.0202C17.0392 13.1011 17.2197 13.2116 17.3653 13.3517C17.5162 13.4919 17.6294 13.6536 17.7049 13.8368C17.7857 14.0201 17.8262 14.2115 17.8262 14.4109C17.8262 14.4702 17.8235 14.5322 17.8181 14.5969C17.8127 14.6616 17.8019 14.7262 17.7857 14.7909H18.3841V15.5186H17.4219L16.4193 16.0684H18.3841V16.7961H15.4652C15.449 16.8608 15.4409 16.9282 15.4409 16.9983C15.4409 17.2624 15.511 17.4591 15.6512 17.5885C15.7967 17.7179 15.9935 17.7826 16.2414 17.7826C16.4301 17.7826 16.6106 17.7394 16.7831 17.6532C16.9556 17.5669 17.1389 17.4187 17.3329 17.2085L17.9474 17.9604C17.7588 18.1868 17.5162 18.3728 17.2197 18.5183C16.9233 18.6639 16.581 18.7366 16.1929 18.7366Z" fill="black"/>
</svg>
