<svg width="25" height="25" viewBox="0 0 25 25" fill="none" xmlns="http://www.w3.org/2000/svg">
<path d="M18.3237 20.5C18.3237 21.6 19.2237 22.5 20.3237 22.5C21.4237 22.5 22.3237 21.6 22.3237 20.5C22.3237 19.4 21.4237 18.5 20.3237 18.5C19.2237 18.5 18.3237 19.4 18.3237 20.5Z" fill="black"/>
<path d="M7.32373 20.5C7.32373 21.6 8.22373 22.5 9.32373 22.5C10.4237 22.5 11.3237 21.6 11.3237 20.5C11.3237 19.4 10.4237 18.5 9.32373 18.5C8.22373 18.5 7.32373 19.4 7.32373 20.5Z" fill="black"/>
<path d="M8.68596 15.4972L8.65546 15.4728L8.62296 15.4512C8.28493 15.2258 8.07003 14.8733 7.89738 14.2814L6.22373 6.40543V6.40518V6.40461V6.40405V6.40347V6.4029V6.40233V6.40175V6.40117V6.40058V6.4V6.30864L6.20537 6.21915L5.40537 2.31915L5.25785 1.6H4.52373H1.32373C1.27388 1.6 1.24701 1.5918 1.23744 1.58811C1.23697 1.58794 1.23654 1.58776 1.23613 1.5876C1.23597 1.58719 1.23579 1.58676 1.23562 1.58629C1.23193 1.57672 1.22373 1.54985 1.22373 1.5C1.22373 1.45015 1.23193 1.42328 1.23562 1.41371C1.23579 1.41324 1.23597 1.41281 1.23613 1.4124C1.23654 1.41224 1.23697 1.41206 1.23744 1.41189C1.24701 1.4082 1.27388 1.4 1.32373 1.4H5.32373C5.39201 1.4 5.41626 1.41906 5.41768 1.42018L5.41769 1.42019C5.41951 1.42161 5.4218 1.42369 5.42494 1.42891C5.42814 1.43421 5.43559 1.44844 5.44121 1.4765L6.24121 5.4765L6.38591 6.2H7.12373H23.3237C23.3504 6.2 23.368 6.20232 23.3783 6.20433L23.4183 6.26433C23.4195 6.27786 23.4206 6.2945 23.4214 6.31483C23.4227 6.34445 23.4233 6.37564 23.4235 6.41195L21.8412 14.3235L21.8363 14.348L21.8328 14.3727C21.7718 14.7994 21.5288 15.1816 21.1245 15.4512L21.092 15.4728L21.0615 15.4972C20.7666 15.7331 20.1865 15.9 19.7237 15.9H9.92373C9.40779 15.9 9.01121 15.7574 8.68596 15.4972Z" stroke="black" stroke-width="1.8"/>
</svg>
