<svg width="21" height="21" viewBox="0 0 21 21" fill="none" xmlns="http://www.w3.org/2000/svg">
<path d="M4.40717 8.66668H6.24047C8.07376 8.66668 8.99041 7.75004 8.99041 5.91674V4.08344C8.99041 2.25014 8.07376 1.3335 6.24047 1.3335H4.40717C2.57387 1.3335 1.65723 2.25014 1.65723 4.08344V5.91674C1.65723 7.75004 2.57387 8.66668 4.40717 8.66668Z" fill="white" stroke="white" stroke-width="1.7" stroke-miterlimit="10" stroke-linecap="round" stroke-linejoin="round"/>
<path d="M15.4057 8.66668H17.239C19.0723 8.66668 19.9889 7.75004 19.9889 5.91674V4.08344C19.9889 2.25014 19.0723 1.3335 17.239 1.3335H15.4057C13.5724 1.3335 12.6558 2.25014 12.6558 4.08344V5.91674C12.6558 7.75004 13.5724 8.66668 15.4057 8.66668Z" fill="white" stroke="white" stroke-width="1.7" stroke-miterlimit="10" stroke-linecap="round" stroke-linejoin="round"/>
<path d="M15.4057 19.6672H17.239C19.0723 19.6672 19.9889 18.7505 19.9889 16.9172V15.0839C19.9889 13.2506 19.0723 12.334 17.239 12.334H15.4057C13.5724 12.334 12.6558 13.2506 12.6558 15.0839V16.9172C12.6558 18.7505 13.5724 19.6672 15.4057 19.6672Z" fill="white" stroke="white" stroke-width="1.7" stroke-miterlimit="10" stroke-linecap="round" stroke-linejoin="round"/>
<path d="M4.40717 19.6672H6.24047C8.07376 19.6672 8.99041 18.7505 8.99041 16.9172V15.0839C8.99041 13.2506 8.07376 12.334 6.24047 12.334H4.40717C2.57387 12.334 1.65723 13.2506 1.65723 15.0839V16.9172C1.65723 18.7505 2.57387 19.6672 4.40717 19.6672Z" fill="white" stroke="white" stroke-width="1.7" stroke-miterlimit="10" stroke-linecap="round" stroke-linejoin="round"/>
</svg>
