<svg width="25" height="25" viewBox="0 0 25 25" fill="none" xmlns="http://www.w3.org/2000/svg">
<path d="M15.5771 16.051L15.052 15.5697L14.4629 15.9702C13.3624 16.7183 12.0344 17.1555 10.6015 17.1555C6.80302 17.1555 3.72373 14.0763 3.72373 10.2778C3.72373 6.47929 6.80303 3.4 10.6015 3.4C14.4 3.4 17.4793 6.4793 17.4793 10.2778C17.4793 11.934 16.895 13.4514 15.9203 14.6386L15.3796 15.2972L16.0078 15.8731L21.8552 21.2331C21.9413 21.312 21.9469 21.4457 21.8683 21.5315C21.7896 21.6174 21.656 21.6233 21.57 21.5445C21.57 21.5445 21.5699 21.5445 21.5699 21.5444L15.5771 16.051Z" stroke="black" stroke-width="1.8"/>
</svg>
