<svg aria-hidden="true" style="position: absolute; width: 0; height: 0; overflow: hidden;" version="1.1" xmlns="http://www.w3.org/2000/svg" xmlns:xlink="http://www.w3.org/1999/xlink">
<defs>
<symbol id="person" viewBox="0 0 30 32">
<path d="M3.916 23.064v0zM33.080 31.239v-3.386h-6.857v3.386h6.857zM33.080 27.853c0-2.733-1.114-5.337-3.068-7.243l-4.788 4.908c0.65 0.634 0.999 1.476 0.999 2.335h6.857zM30.013 20.61c-1.951-1.903-4.58-2.958-7.303-2.958v6.857c0.959 0 1.862 0.372 2.515 1.009l4.788-4.908zM22.709 17.652h-13.884v6.857h13.884v-6.857zM8.825 17.652c-2.723 0-5.352 1.055-7.303 2.958l4.788 4.908c0.653-0.637 1.556-1.009 2.515-1.009v-6.857zM1.522 20.61c-1.954 1.906-3.068 4.51-3.068 7.243h6.857c0-0.859 0.349-1.701 0.999-2.335l-4.788-4.908zM-1.546 27.853v3.386h6.857v-3.386h-6.857z"></path>
<path d="M22.709 7.535c0 3.74-3.108 6.772-6.942 6.772s-6.942-3.032-6.942-6.772c0-3.74 3.108-6.772 6.942-6.772s6.942 3.032 6.942 6.772z"></path>
</symbol>
<symbol id="logo" viewBox="0 0 31 32">
<path fill="#fff" style="fill: var(--color1, #fff)" d="M30.476 15.468c0 7.872-6.399 14.249-14.293 14.249s-14.293-6.381-14.293-14.249c0-7.868 6.399-14.249 14.293-14.249s14.293 6.381 14.293 14.249z"></path>
<path fill="#0b0907" style="fill: var(--color2, #0b0907)" d="M29.877 15.196c0 7.872-6.399 14.249-14.293 14.249s-14.293-6.381-14.293-14.249c0-7.868 6.399-14.249 14.293-14.249s14.293 6.381 14.293 14.249z"></path>
<path fill="#d5221c" style="fill: var(--color3, #d5221c)" d="M29.205 14.648c0 7.872-6.399 14.249-14.293 14.249s-14.293-6.381-14.293-14.249c0-7.868 6.399-14.253 14.293-14.253s14.293 6.381 14.293 14.253z"></path>
<path fill="#0b0907" style="fill: var(--color2, #0b0907)" d="M4.487 10.077c0.043-0.089 0.133-0.136 0.18-0.214 0.168-0.268 0.419-0.412 0.716-0.485 0.317-0.082 0.579 0.023 0.759 0.322 0.153 0.252 0.246 0.536 0.395 0.788 0.109 0.179 0.258 0.338 0.411 0.489 0.141 0.14 0.27 0.074 0.36-0.078 0.043-0.074 0.086-0.155 0.106-0.237 0.090-0.357 0.325-0.575 0.653-0.722 0.286-0.128 0.446-0.105 0.559 0.19 0.18 0.485 0.395 0.975 0.462 1.48 0.125 0.959 0.164 1.926 0.223 2.893 0.020 0.315-0.051 0.361-0.364 0.35-0.755-0.027-0.767-0.027-0.861-0.781-0.039-0.315-0.016-0.637-0.027-0.955-0.020-0.552-0.047-1.103-0.074-1.654-0.004-0.058-0.016-0.132-0.051-0.171-0.078-0.082-0.176-0.148-0.266-0.221-0.059 0.097-0.145 0.186-0.164 0.291-0.035 0.167-0.008 0.346-0.039 0.517-0.067 0.353-0.34 0.451-0.571 0.175-0.239-0.28-0.411-0.618-0.614-0.928-0.047-0.074-0.106-0.136-0.192-0.245-0.031 0.101-0.063 0.148-0.063 0.194 0.016 0.847 0.012 1.697 0.063 2.54 0.020 0.326 0.164 0.649 0.266 0.971 0.094 0.291 0.004 0.431-0.297 0.384-0.747-0.117-1.072-0.369-1.146-1.056-0.086-0.781-0.141-1.565-0.227-2.35-0.027-0.225-0.117-0.447-0.184-0.668-0.008-0.027-0.012-0.050-0.012-0.078-0.004-0.264-0.027-0.641 0-0.742z"></path>
<path fill="#0b0907" style="fill: var(--color2, #0b0907)" d="M26.697 20.404c-0.184 0.144-0.36 0.299-0.555 0.416s-0.422 0.186-0.638 0.272c-0.152 0.062-0.305 0.116-0.458 0.179-0.039 0.015-0.043 0.047-0.117 0.050-0.579 0.047-1.173 0.012-1.647-0.431-0.168-0.159-0.372-0.284-0.54-0.447-0.098-0.097-0.219-0.237-0.215-0.357 0.004-0.517-0.023-1.045 0.094-1.542 0.325-1.406 1.541-1.643 2.601-1.285 0.559 0.19 0.99 0.544 1.142 1.15 0.090 0.353 0.004 0.52-0.348 0.629-0.497 0.155-0.997 0.299-1.498 0.439-0.356 0.097-0.458 0.365-0.25 0.676 0.446 0.664 1.263 0.715 1.788 0.113 0.11-0.124 0.215-0.26 0.352-0.33 0.289-0.167 0.552 0.264 0.289 0.47zM24.362 19.010c0.27-0.004 0.571-0.043 0.657-0.315 0.051-0.163-0.035-0.412-0.141-0.567-0.078-0.109-0.305-0.19-0.442-0.163-0.121 0.023-0.235 0.198-0.309 0.33-0.055 0.097-0.035 0.237-0.059 0.357-0.055 0.295-0.004 0.361 0.293 0.357z"></path>
<path fill="#0b0907" style="fill: var(--color2, #0b0907)" d="M21.69 8.104c-0.059 0.4-0.106 0.804-0.18 1.204-0.027 0.14-0.106 0.272-0.184 0.392-0.031 0.047-0.129 0.050-0.196 0.074 0-0.062-0.008-0.128 0.004-0.19 0.113-0.443 0.235-0.885 0.352-1.328 0.012-0.047 0-0.101-0.004-0.151h0.207z"></path>
<path fill="#0b0907" style="fill: var(--color2, #0b0907)" d="M17.904 14.769c0 0.233 0.004 0.466-0.004 0.699-0.004 0.062-0.043 0.124-0.067 0.186-0.070-0.027-0.176-0.035-0.2-0.082-0.086-0.159-0.168-0.33-0.203-0.509-0.055-0.287 0.156-0.617-0.211-0.87-0.059-0.039-0.168-0.058-0.239-0.043-0.203 0.050-0.372 0.179-0.548 0.295-0.067 0.043-0.117 0.101-0.18 0.148-0.332 0.245-0.681 0.497-1.123 0.334-0.485-0.179-0.794-0.583-0.794-1.068 0.004-1.025 0.188-2.016 1.052-2.73 0.477-0.396 1.076-0.439 1.674-0.528 0.039-0.008 0.082-0.023 0.113-0.047 0.289-0.186 0.446-0.225 0.555-0.008 0.090 0.179 0.176 0.353 0.047 0.559-0.051 0.082-0.063 0.198-0.059 0.299 0.031 0.769 0.067 1.534 0.113 2.299 0.020 0.353 0.059 0.707 0.094 1.056-0.012 0.004-0.016 0.008-0.023 0.008zM16.007 12.621c-0.004 0.039 0 0.078 0.012 0.117 0.031 0.113 0.074 0.276 0.149 0.419 0.082 0.155 0.54 0.276 0.688 0.21 0.227-0.101 0.11-0.295 0.11-0.458 0.004-0.085 0-0.175-0.004-0.26-0.023-0.318-0.020-0.641-0.078-0.955s-0.235-0.353-0.485-0.144c-0.309 0.264-0.34 0.629-0.391 1.072z"></path>
<path fill="#0b0907" style="fill: var(--color2, #0b0907)" d="M19.152 20.396c0.008 0.043 0.012 0.089-0.004 0.128-0.125 0.311-0.293 0.594-0.606 0.753-0.286 0.144-0.52 0.039-0.548-0.284-0.047-0.594-0.063-1.188-0.090-1.783-0.012-0.284 0.004-0.571-0.043-0.847-0.090-0.563 0.313-1.204 0.872-1.34 0.141-0.035 0.246-0.031 0.325 0.101 0.055 0.101 0.207 0.151 0.317 0.12 0.293-0.078 0.583-0.155 0.861 0.078 0.035 0.027 0.152-0.035 0.231-0.066 0.227-0.089 0.442-0.218 0.673-0.268 0.372-0.074 0.763 0.19 0.821 0.594 0.067 0.439 0.059 0.893 0.067 1.34 0.004 0.241-0.039 0.482-0.051 0.726-0.004 0.074-0.008 0.183 0.035 0.221 0.219 0.186 0.086 0.338-0.031 0.485-0.188 0.237-0.379 0.474-0.583 0.699-0.141 0.155-0.301 0.311-0.54 0.221-0.25-0.093-0.309-0.315-0.266-0.536 0.067-0.361 0.125-0.738 0.278-1.068 0.278-0.614 0.258-1.247 0.242-1.884 0-0.058-0.082-0.167-0.121-0.167-0.070 0.004-0.18 0.062-0.196 0.116-0.043 0.163-0.039 0.342-0.074 0.509-0.043 0.218-0.074 0.443-0.168 0.641-0.090 0.19-0.227 0.171-0.309-0.031-0.067-0.159-0.090-0.334-0.121-0.501-0.067-0.334-0.242-0.536-0.473-0.54-0.262-0.004-0.536 0.26-0.587 0.571-0.004 0.035-0.008 0.070-0.008 0.105 0 0.268 0 0.536 0 0.804z"></path>
<path fill="#0b0907" style="fill: var(--color2, #0b0907)" d="M11.837 14.971c-0.231-0.023-0.422-0.035-0.61-0.058-0.317-0.039-0.602-0.144-0.837-0.384-0.156-0.159-0.36-0.276-0.516-0.435-0.102-0.105-0.223-0.256-0.219-0.384 0.020-0.874 0.004-1.775 0.489-2.544 0.031-0.050 0.082-0.089 0.137-0.113 1.119-0.458 2.222-0.412 2.965 0.493 0.016 0.015 0.027 0.039 0.035 0.054 0.379 0.722 0.321 0.959-0.289 1.126-0.52 0.144-1.037 0.299-1.553 0.458-0.172 0.054-0.25 0.229-0.172 0.392 0.399 0.866 1.334 0.998 1.909 0.338 0.102-0.117 0.203-0.249 0.332-0.326 0.078-0.043 0.243-0.023 0.313 0.031 0.055 0.047 0.074 0.225 0.031 0.287-0.262 0.377-0.614 0.656-1.056 0.808-0.227 0.082-0.458 0.155-0.688 0.221-0.098 0.035-0.203 0.031-0.27 0.035zM11.505 12.676c0.223-0.023 0.52-0.035 0.614-0.299 0.059-0.163-0.004-0.416-0.102-0.571-0.070-0.113-0.297-0.198-0.438-0.179-0.125 0.016-0.254 0.183-0.325 0.311-0.063 0.113-0.051 0.268-0.066 0.408-0.039 0.26 0.024 0.33 0.317 0.33z"></path>
<path fill="#0b0907" style="fill: var(--color2, #0b0907)" d="M21.311 13.973c0.391 0 0.782 0 1.173 0 0.051 0 0.117-0.015 0.153 0.012 0.106 0.066 0.2 0.144 0.301 0.221-0.086 0.085-0.164 0.225-0.262 0.241-0.528 0.097-1.060 0.194-1.596 0.237-0.497 0.039-1.009 0.113-1.498-0.109-0.047-0.023-0.153 0.066-0.227 0.113-0.145 0.089-0.297 0.276-0.426 0.26-0.231-0.027-0.239-0.28-0.27-0.478-0.2-1.173-0.141-2.35 0.008-3.515 0.078-0.614 0.289-1.243 0.966-1.53 0.070-0.031 0.176-0.043 0.239-0.012 0.043 0.023 0.070 0.148 0.047 0.206-0.25 0.75-0.059 1.526-0.141 2.291-0.059 0.567-0.043 1.142-0.047 1.709 0 0.303 0.070 0.357 0.376 0.361 0.399 0.004 0.802 0 1.201 0 0.004-0.004 0.004-0.004 0.004-0.008z"></path>
<path fill="#0b0907" style="fill: var(--color2, #0b0907)" d="M13.472 19.064c-0.024 0.532-0.074 1.060-0.031 1.592 0 0.019 0.004 0.035 0.008 0.050 0.047 0.186 0.11 0.559-0.153 0.586-0.121 0.012-0.274-0.124-0.383-0.225-0.059-0.054-0.063-0.175-0.070-0.268-0.059-0.878-0.121-1.759-0.156-2.637-0.012-0.291 0.121-0.598 0.172-0.874 0.024-0.128-0.051-0.272-0.172-0.318-0.266-0.109-0.555-0.14-0.841-0.186-0.176-0.027-0.469-0.342-0.489-0.532-0.020-0.198 0.125-0.392 0.395-0.443 0.395-0.078 0.782-0.159 1.189 0.047 0.469 0.237 0.974 0.264 1.502 0.117 0.278-0.078 0.583-0.062 0.876-0.058 0.192 0.004 0.246 0.132 0.153 0.303-0.188 0.33-0.438 0.602-0.794 0.765-0.11 0.050-0.223 0.113-0.305 0.198-0.090 0.093-0.231 0.12-0.344 0.066-0.25-0.124-0.411-0.035-0.442 0.202z"></path>
<path fill="#0b0907" style="fill: var(--color2, #0b0907)" d="M15.902 18.87c0.004-0.792 0.485-1.254 1.13-1.173 0.196 0.023 0.301 0.198 0.231 0.381-0.043 0.113-0.086 0.241-0.086 0.361 0 0.819 0.012 1.639 0.020 2.458 0.004 0.225-0.153 0.346-0.336 0.416-0.203 0.078-0.379-0.015-0.462-0.19-0.137-0.287-0.274-0.586-0.332-0.893-0.094-0.478-0.121-0.963-0.164-1.359z"></path>
<path fill="#0b0907" style="fill: var(--color2, #0b0907)" d="M15.956 16.26c0.004-0.35 0.211-0.571 0.54-0.567 0.336 0.004 0.555 0.163 0.548 0.392-0.012 0.315-0.356 0.656-0.665 0.66-0.258 0.004-0.426-0.19-0.422-0.485z"></path>
<path fill="#0b0907" style="fill: var(--color2, #0b0907)" d="M24.949 10.547c-0.055 0.489-1.095 1.138-1.451 0.944 0.497-0.322 0.974-0.633 1.451-0.944z"></path>
<path fill="#0b0907" style="fill: var(--color2, #0b0907)" d="M26.47 14.272c-0.106 0.050-0.156 0.093-0.211 0.097-0.395 0.035-0.794 0.066-1.189 0.082-0.094 0.004-0.2-0.054-0.289-0.101-0.031-0.015-0.051-0.089-0.047-0.132 0-0.023 0.063-0.058 0.098-0.058 0.493 0.004 0.986 0.015 1.482 0.027 0.035 0.004 0.070 0.039 0.156 0.085z"></path>
<path fill="#fff" style="fill: var(--color1, #fff)" d="M4.171 9.821c0.043-0.089 0.133-0.136 0.18-0.214 0.168-0.268 0.419-0.412 0.716-0.485 0.317-0.082 0.579 0.023 0.759 0.322 0.153 0.252 0.246 0.536 0.395 0.788 0.109 0.179 0.258 0.338 0.411 0.489 0.141 0.14 0.27 0.074 0.36-0.078 0.043-0.074 0.086-0.155 0.106-0.237 0.090-0.357 0.325-0.575 0.653-0.722 0.286-0.128 0.446-0.105 0.559 0.19 0.18 0.485 0.395 0.975 0.462 1.48 0.125 0.959 0.164 1.926 0.223 2.893 0.020 0.315-0.051 0.361-0.364 0.35-0.755-0.027-0.767-0.027-0.861-0.781-0.039-0.315-0.016-0.637-0.027-0.955-0.020-0.552-0.047-1.103-0.074-1.654-0.004-0.058-0.016-0.132-0.051-0.171-0.078-0.082-0.176-0.148-0.266-0.221-0.059 0.097-0.145 0.186-0.164 0.291-0.035 0.167-0.008 0.346-0.039 0.517-0.067 0.353-0.34 0.45-0.571 0.175-0.239-0.28-0.411-0.617-0.614-0.928-0.047-0.074-0.106-0.136-0.192-0.245-0.031 0.101-0.063 0.148-0.063 0.194 0.016 0.847 0.012 1.697 0.063 2.54 0.020 0.326 0.164 0.649 0.266 0.971 0.094 0.291 0.004 0.431-0.297 0.384-0.747-0.117-1.072-0.369-1.146-1.056-0.086-0.781-0.141-1.565-0.227-2.35-0.027-0.225-0.117-0.447-0.184-0.668-0.008-0.027-0.012-0.050-0.012-0.078 0-0.26-0.023-0.637 0-0.742z"></path>
<path fill="#fff" style="fill: var(--color1, #fff)" d="M26.384 20.148c-0.184 0.144-0.36 0.299-0.555 0.416s-0.422 0.186-0.638 0.272c-0.153 0.062-0.305 0.116-0.458 0.179-0.039 0.016-0.043 0.047-0.117 0.050-0.579 0.047-1.173 0.012-1.647-0.431-0.168-0.159-0.372-0.284-0.54-0.447-0.098-0.097-0.219-0.237-0.215-0.357 0.004-0.517-0.023-1.045 0.094-1.542 0.325-1.406 1.541-1.643 2.601-1.285 0.559 0.19 0.99 0.544 1.142 1.15 0.090 0.353 0.004 0.52-0.348 0.629-0.497 0.155-0.997 0.299-1.498 0.439-0.356 0.097-0.458 0.365-0.25 0.676 0.446 0.664 1.263 0.715 1.788 0.113 0.11-0.124 0.215-0.26 0.352-0.33 0.286-0.163 0.552 0.264 0.289 0.47zM24.049 18.754c0.27-0.004 0.571-0.043 0.657-0.315 0.051-0.163-0.035-0.412-0.141-0.567-0.078-0.109-0.305-0.19-0.442-0.163-0.121 0.023-0.235 0.198-0.309 0.33-0.055 0.097-0.035 0.237-0.059 0.357-0.059 0.299-0.004 0.361 0.293 0.357z"></path>
<path fill="#fff" style="fill: var(--color1, #fff)" d="M21.374 7.848c-0.059 0.4-0.106 0.804-0.18 1.204-0.027 0.14-0.106 0.272-0.184 0.392-0.031 0.047-0.129 0.050-0.196 0.074 0-0.062-0.008-0.128 0.004-0.19 0.113-0.443 0.235-0.885 0.352-1.328 0.012-0.047 0-0.101-0.004-0.152h0.207z"></path>
<path fill="#fff" style="fill: var(--color1, #fff)" d="M17.587 14.512c0 0.233 0.004 0.466-0.004 0.699-0.004 0.062-0.043 0.124-0.067 0.186-0.070-0.027-0.176-0.035-0.203-0.082-0.086-0.159-0.168-0.33-0.203-0.509-0.055-0.287 0.156-0.618-0.211-0.87-0.059-0.039-0.168-0.058-0.239-0.043-0.203 0.050-0.372 0.179-0.548 0.295-0.067 0.043-0.117 0.101-0.18 0.148-0.332 0.245-0.681 0.497-1.123 0.334-0.485-0.179-0.794-0.582-0.794-1.068 0.004-1.025 0.188-2.016 1.052-2.73 0.477-0.396 1.076-0.439 1.674-0.528 0.039-0.008 0.082-0.023 0.113-0.047 0.289-0.186 0.446-0.225 0.555-0.008 0.090 0.179 0.176 0.353 0.047 0.559-0.051 0.082-0.063 0.198-0.059 0.299 0.031 0.769 0.067 1.534 0.113 2.299 0.020 0.353 0.059 0.707 0.094 1.056-0.004 0.008-0.012 0.008-0.020 0.008zM15.69 12.365c-0.004 0.039 0 0.078 0.012 0.117 0.031 0.113 0.074 0.276 0.149 0.419 0.082 0.155 0.54 0.276 0.688 0.21 0.227-0.101 0.11-0.295 0.11-0.458 0.004-0.085 0-0.175-0.004-0.26-0.023-0.318-0.020-0.641-0.078-0.955s-0.235-0.353-0.485-0.144c-0.305 0.264-0.336 0.633-0.391 1.072z"></path>
<path fill="#fff" style="fill: var(--color1, #fff)" d="M18.839 20.144c0.008 0.043 0.012 0.089-0.004 0.128-0.125 0.311-0.293 0.594-0.606 0.753-0.285 0.144-0.52 0.039-0.548-0.284-0.051-0.594-0.063-1.188-0.090-1.783-0.012-0.284 0.004-0.571-0.043-0.847-0.090-0.563 0.313-1.204 0.872-1.34 0.141-0.035 0.246-0.031 0.325 0.101 0.055 0.101 0.207 0.151 0.317 0.12 0.293-0.078 0.583-0.155 0.861 0.078 0.035 0.027 0.153-0.035 0.231-0.066 0.227-0.089 0.438-0.218 0.673-0.268 0.372-0.074 0.763 0.19 0.821 0.594 0.067 0.439 0.059 0.893 0.067 1.34 0.004 0.241-0.039 0.482-0.051 0.726-0.004 0.074-0.008 0.183 0.035 0.221 0.219 0.186 0.086 0.338-0.031 0.485-0.188 0.237-0.379 0.474-0.583 0.699-0.141 0.155-0.301 0.311-0.54 0.221-0.25-0.093-0.309-0.315-0.266-0.536 0.067-0.361 0.125-0.738 0.278-1.068 0.278-0.614 0.258-1.247 0.243-1.884 0-0.058-0.082-0.167-0.121-0.167-0.070 0.004-0.18 0.062-0.196 0.117-0.043 0.163-0.039 0.342-0.074 0.509-0.043 0.218-0.074 0.443-0.168 0.641-0.090 0.19-0.227 0.171-0.309-0.031-0.067-0.159-0.090-0.334-0.121-0.501-0.067-0.334-0.243-0.536-0.473-0.54-0.262-0.004-0.536 0.26-0.587 0.571-0.004 0.035-0.008 0.070-0.008 0.105 0 0.268 0 0.536 0 0.804z"></path>
<path fill="#fff" style="fill: var(--color1, #fff)" d="M11.524 14.718c-0.231-0.023-0.422-0.035-0.61-0.058-0.317-0.039-0.602-0.144-0.837-0.384-0.156-0.159-0.36-0.276-0.516-0.435-0.102-0.105-0.223-0.256-0.219-0.384 0.020-0.874 0.004-1.775 0.489-2.544 0.031-0.050 0.082-0.089 0.137-0.113 1.119-0.458 2.222-0.412 2.965 0.493 0.016 0.016 0.027 0.039 0.035 0.054 0.379 0.722 0.321 0.959-0.289 1.126-0.52 0.144-1.037 0.299-1.553 0.458-0.172 0.054-0.25 0.229-0.172 0.392 0.399 0.866 1.334 0.998 1.909 0.338 0.102-0.117 0.203-0.249 0.333-0.326 0.078-0.043 0.242-0.023 0.313 0.031 0.055 0.047 0.074 0.225 0.031 0.287-0.262 0.377-0.614 0.652-1.056 0.808-0.227 0.082-0.458 0.155-0.688 0.221-0.098 0.031-0.207 0.027-0.27 0.035zM11.188 12.423c0.223-0.023 0.52-0.035 0.614-0.299 0.059-0.163-0.004-0.416-0.102-0.571-0.070-0.113-0.297-0.198-0.438-0.179-0.125 0.015-0.254 0.182-0.325 0.311-0.063 0.113-0.051 0.268-0.066 0.408-0.035 0.256 0.027 0.33 0.317 0.33z"></path>
<path fill="#fff" style="fill: var(--color1, #fff)" d="M20.998 13.716c0.391 0 0.782 0 1.173 0 0.051 0 0.117-0.015 0.152 0.012 0.106 0.066 0.2 0.144 0.301 0.221-0.086 0.085-0.164 0.225-0.262 0.241-0.528 0.097-1.060 0.194-1.596 0.237-0.497 0.039-1.009 0.113-1.498-0.109-0.047-0.023-0.153 0.066-0.227 0.113-0.145 0.089-0.297 0.276-0.426 0.26-0.231-0.027-0.239-0.28-0.27-0.478-0.2-1.173-0.141-2.35 0.008-3.515 0.078-0.614 0.289-1.243 0.966-1.53 0.070-0.031 0.176-0.043 0.239-0.012 0.043 0.023 0.070 0.148 0.047 0.206-0.258 0.75-0.070 1.53-0.152 2.295-0.059 0.567-0.043 1.142-0.047 1.709 0 0.303 0.070 0.357 0.376 0.361 0.399 0.004 0.802 0 1.201 0 0.016-0.004 0.016-0.008 0.016-0.012z"></path>
<path fill="#fff" style="fill: var(--color1, #fff)" d="M13.156 18.812c-0.024 0.532-0.074 1.060-0.031 1.592 0 0.019 0.004 0.035 0.008 0.050 0.047 0.186 0.11 0.559-0.153 0.586-0.121 0.012-0.274-0.124-0.383-0.225-0.059-0.054-0.063-0.175-0.070-0.268-0.059-0.878-0.121-1.759-0.156-2.637-0.012-0.291 0.121-0.598 0.172-0.874 0.024-0.128-0.051-0.272-0.172-0.318-0.266-0.109-0.555-0.14-0.841-0.186-0.176-0.027-0.469-0.342-0.489-0.532-0.020-0.198 0.125-0.392 0.395-0.443 0.395-0.078 0.782-0.159 1.189 0.047 0.469 0.237 0.974 0.264 1.502 0.117 0.278-0.078 0.583-0.062 0.876-0.058 0.192 0.004 0.246 0.132 0.153 0.303-0.188 0.33-0.438 0.602-0.794 0.765-0.11 0.050-0.223 0.113-0.305 0.198-0.090 0.093-0.231 0.12-0.344 0.066-0.25-0.124-0.411-0.035-0.442 0.202z"></path>
<path fill="#fff" style="fill: var(--color1, #fff)" d="M15.585 18.614c0.004-0.792 0.485-1.254 1.13-1.173 0.196 0.023 0.301 0.198 0.231 0.381-0.043 0.113-0.086 0.241-0.086 0.361 0 0.819 0.012 1.639 0.020 2.458 0.004 0.225-0.152 0.346-0.336 0.416-0.203 0.078-0.379-0.016-0.462-0.19-0.137-0.287-0.274-0.586-0.332-0.893-0.090-0.474-0.117-0.959-0.164-1.359z"></path>
<path fill="#fff" style="fill: var(--color1, #fff)" d="M15.639 16.008c0.004-0.35 0.211-0.571 0.54-0.567 0.336 0.004 0.555 0.163 0.548 0.392-0.012 0.315-0.356 0.656-0.665 0.66-0.254 0.004-0.422-0.19-0.422-0.485z"></path>
<path fill="#fff" style="fill: var(--color1, #fff)" d="M24.636 10.295c-0.055 0.489-1.095 1.138-1.451 0.944 0.497-0.326 0.974-0.633 1.451-0.944z"></path>
<path fill="#fff" style="fill: var(--color1, #fff)" d="M26.154 14.015c-0.106 0.050-0.156 0.093-0.211 0.097-0.395 0.035-0.794 0.066-1.189 0.082-0.094 0.004-0.2-0.054-0.289-0.101-0.031-0.016-0.051-0.089-0.047-0.132 0-0.023 0.063-0.058 0.098-0.058 0.493 0.004 0.986 0.015 1.482 0.027 0.035 0.004 0.070 0.039 0.156 0.085z"></path>
<path fill="#000" style="fill: var(--color4, #000)" d="M9.795 27.554l-0.215 0.326c0.117 0.047 0.368 0.276 0.383 0.501 0.125-0.070 0.724-0.346 0.759-0.349 0.086-0.016 0.129 0.074 0.145 0.163 0.004 0.012-0.661 0.384-0.884 0.532-0.168 0.54-0.325 0.812-0.653 1.348-0.329 0.54-1.048 1.266-1.346 1.336-0.258 0.062-0.407-0.124-0.434-0.284-0.184-1.13 1.138-1.903 2.061-2.54 0.008-0.078-0.035-0.183-0.047-0.241-0.004-0.015-0.113-0.14-0.242-0.198-0.094-0.047-0.141-0.074-0.153-0.136-0.004-0.054 0.094-0.155 0.262-0.408 0.129-0.19 0.258-0.443 0.235-0.606-0.016-0.070-0.086-0.163-0.156-0.148-0.113 0.023-0.215 0.085-0.379 0.229-0.254 0.229-0.473 0.451-0.575 0.462-0.117 0.016-0.18-0.023-0.2-0.132-0.012-0.14 0.458-0.501 0.575-0.602 0.196-0.163 0.493-0.299 0.567-0.315 0.239-0.047 0.446 0.167 0.477 0.419 0.020 0.218-0.090 0.509-0.18 0.641zM9.569 28.971c-0.293 0.186-1.811 1.177-1.674 2.019 0.008 0.070 0.035 0.058 0.098 0.047 0.106-0.019 0.708-0.598 0.982-0.979 0.278-0.388 0.481-0.819 0.595-1.087z"></path>
<path fill="#000" style="fill: var(--color4, #000)" d="M12.94 28.051c-0.188 0.225-0.372 0.357-0.552 0.392-0.149 0.031-0.262 0.012-0.34-0.058-0.055-0.054-0.090-0.124-0.106-0.21-0.024-0.12-0.012-0.295 0.012-0.447l-0.485 0.594c-0.211 0.237-0.399 0.369-0.555 0.4s-0.301-0.078-0.325-0.186c-0.016-0.085 0.047-0.272 0.188-0.555s0.309-0.548 0.493-0.8c0.176-0.229 0.297-0.384 0.368-0.47 0.246-0.291 0.45-0.458 0.598-0.485 0.11-0.023 0.215-0.008 0.309 0.047 0.078-0.062 0.153-0.171 0.192-0.179 0.094-0.019 0.149 0.023 0.172 0.132 0.008 0.039-0.008 0.105-0.047 0.175l-0.153 0.26c-0.149 0.248-0.25 0.458-0.321 0.621-0.11 0.26-0.149 0.47-0.113 0.637 0.020 0.093 0.055 0.155 0.125 0.144 0.156-0.031 0.325-0.171 0.508-0.419l0.301-0.416c0.016-0.019 0.031-0.031 0.047-0.035 0.063-0.012 0.106 0.019 0.121 0.101 0.012 0.070 0 0.12-0.055 0.202-0.239 0.346-0.364 0.532-0.383 0.555zM12.142 26.781c-0.008-0.035-0.024-0.050-0.051-0.043-0.11 0.023-0.317 0.252-0.61 0.691-0.297 0.439-0.422 0.68-0.372 0.722s0.227-0.128 0.528-0.501c0.301-0.381 0.469-0.629 0.501-0.734 0.012-0.047 0.016-0.089 0.004-0.136z"></path>
<path fill="#000" style="fill: var(--color4, #000)" d="M14.818 27.278c-0.239 0.256-0.438 0.451-0.598 0.582-0.254 0.198-0.489 0.322-0.696 0.361-0.231 0.047-0.462-0.082-0.509-0.33-0.023-0.12 0.024-0.33 0.145-0.625 0.133-0.318 0.293-0.583 0.481-0.796 0.141-0.163 0.305-0.311 0.481-0.439 0.184-0.136 0.325-0.214 0.426-0.233 0.203-0.039 0.246 0 0.27 0.113 0.012 0.050-0.004 0.101-0.051 0.14-0.078 0.082-0.352 0.163-0.583 0.353-0.137 0.116-0.278 0.264-0.403 0.443-0.11 0.148-0.2 0.318-0.282 0.509s-0.117 0.318-0.098 0.404c0.012 0.062 0.066 0.093 0.156 0.082 0.184-0.035 0.411-0.171 0.669-0.404 0.086-0.078 0.215-0.21 0.403-0.392 0.094-0.097 0.223-0.233 0.278-0.241 0.074-0.015 0.121 0.008 0.133 0.058 0.020 0.116-0.063 0.245-0.223 0.416z"></path>
<path fill="#000" style="fill: var(--color4, #000)" d="M14.982 27.138c0 0.054-0.117 0.284-0.102 0.373 0.020 0.093 0.024 0.12 0.094 0.109 0.137-0.027 0.305-0.151 0.692-0.742 0.133-0.233 0.246-0.513 0.505-0.928 0.188-0.291 0.442-0.497 0.505-0.509s0.145 0.031 0.156 0.093c0.031 0.167-0.043 0.412-0.090 0.614l-0.106 0.454c-0.043 0.183-0.133 0.567-0.129 0.586 0.016 0.074 0.043 0.105 0.090 0.097 0.086-0.070 0.203-0.159 0.297-0.284l0.407-0.489c0.282-0.342 0.473-0.901 0.802-0.967 0.063-0.012 0.098 0.012 0.11 0.074 0.031 0.167-0.059 0.392-0.117 0.586l-0.141 0.462c-0.059 0.179-0.106 0.353-0.102 0.369 0.016 0.074 0.043 0.105 0.086 0.097 0.039-0.008 0.203-0.151 0.411-0.322 0.203-0.179 0.321-0.264 0.336-0.268 0.055-0.015 0.090 0.004 0.106 0.082 0.016 0.085-0.117 0.26-0.407 0.513-0.293 0.252-0.387 0.369-0.544 0.4-0.149 0.031-0.274-0.101-0.309-0.218-0.059-0.214 0.055-0.536 0.188-0.893-0.188 0.233-0.336 0.478-0.661 0.831-0.262 0.284-0.411 0.404-0.567 0.431-0.149 0.031-0.278-0.101-0.309-0.218-0.023-0.097 0.051-0.532 0.082-0.699 0.027-0.132 0.113-0.451 0.168-0.656l-0.501 0.913c-0.352 0.641-0.649 0.831-0.982 0.905-0.219 0.047-0.36-0.101-0.383-0.229-0.031-0.159 0.055-0.66 0.274-0.703 0.106-0.031 0.145 0.082 0.141 0.136z"></path>
<path fill="#000" style="fill: var(--color4, #000)" d="M20.955 26.478c-0.188 0.225-0.372 0.357-0.552 0.392-0.149 0.031-0.262 0.008-0.34-0.058-0.055-0.054-0.090-0.124-0.106-0.21-0.023-0.12-0.012-0.295 0.012-0.451l-0.485 0.594c-0.211 0.237-0.399 0.369-0.555 0.4s-0.301-0.078-0.325-0.186c-0.016-0.085 0.047-0.272 0.188-0.555s0.309-0.548 0.493-0.8c0.176-0.229 0.297-0.384 0.368-0.47 0.246-0.291 0.45-0.458 0.598-0.485 0.11-0.023 0.215-0.008 0.309 0.047 0.078-0.062 0.152-0.171 0.192-0.179 0.094-0.019 0.149 0.023 0.172 0.132 0.008 0.039-0.008 0.105-0.047 0.175l-0.152 0.26c-0.149 0.249-0.25 0.458-0.321 0.621-0.11 0.26-0.149 0.47-0.113 0.637 0.020 0.093 0.055 0.155 0.125 0.144 0.156-0.031 0.325-0.171 0.509-0.419l0.301-0.416c0.016-0.019 0.031-0.031 0.047-0.035 0.063-0.012 0.106 0.019 0.121 0.101 0.012 0.070 0 0.12-0.055 0.202-0.239 0.353-0.364 0.54-0.383 0.559zM20.157 25.212c-0.008-0.035-0.023-0.050-0.051-0.043-0.11 0.023-0.317 0.252-0.61 0.691-0.297 0.439-0.422 0.676-0.372 0.722 0.051 0.043 0.227-0.128 0.528-0.501 0.301-0.381 0.469-0.629 0.501-0.734 0.012-0.047 0.016-0.089 0.004-0.136z"></path>
<path fill="#000" style="fill: var(--color4, #000)" d="M23.22 24.862l-0.747 0.672c0.137 0.171 0.305 0.326 0.497 0.47 0.149 0.109 0.223 0.183 0.235 0.233 0.016 0.085-0.008 0.132-0.078 0.148-0.133 0.027-0.278-0.012-0.434-0.105-0.18-0.113-0.336-0.28-0.481-0.482-0.54 0.563-0.821 0.851-0.931 0.874-0.156 0.031-0.192-0.050-0.227-0.229-0.027-0.132 0.051-0.431 0.235-0.909 0.239-0.641 0.552-1.243 0.7-1.46 0.153-0.221 0.254-0.346 0.336-0.361 0.074-0.015 0.11 0.039 0.129 0.148 0.008 0.027-0.004 0.155-0.164 0.412-0.219 0.353-0.462 0.75-0.708 1.414l-0.121 0.357c0.149-0.105 0.332-0.268 0.548-0.47 0.176-0.171 0.313-0.299 0.403-0.384l0.849-0.796c0.278-0.264 0.434-0.4 0.477-0.408 0.086-0.016 0.133 0.004 0.145 0.054 0.031 0.171-0.117 0.338-0.661 0.823z"></path>
<path fill="#000" style="fill: var(--color4, #000)" d="M25.575 24.474c-0.113 0.342-0.192 0.61-0.254 0.8-0.11 0.33-0.211 0.594-0.313 0.812-0.149 0.338-0.336 0.656-0.567 0.944-0.344 0.447-0.7 0.734-1.076 0.835-0.176 0.050-0.63 0.303-0.669 0.148-0.031-0.089-0.548-0.672-0.407-0.711 0.067-0.019 0.129-0.008 0.176 0.047 0.047 0.050 0.168-0.384 0.242-0.412 0.227-0.062 0.54-0.047 0.861-0.482 0.364-0.489 1.271-0.668 1.373-1.138l-0.020-0.015c-0.203 0.284-0.336 0.458-0.391 0.517-0.176 0.194-0.344 0.311-0.52 0.365-0.141 0.039-0.246 0.035-0.317-0.023-0.039-0.047-0.082-0.117-0.11-0.21-0.059-0.21-0.031-0.501 0.086-0.862 0.102-0.307 0.235-0.598 0.407-0.889 0.184-0.287 0.309-0.435 0.395-0.447 0.090-0.004 0.141 0.019 0.16 0.085 0.016 0.047-0.004 0.101-0.043 0.175l-0.262 0.419c-0.102 0.186-0.203 0.427-0.305 0.726-0.098 0.299-0.133 0.485-0.11 0.555 0.023 0.089 0.043 0.093 0.149 0.058 0.063-0.019 0.16-0.101 0.293-0.249 0.035-0.035 0.262-0.318 0.681-0.858 0.2-0.586 0.434-0.99 0.591-1.033 0.137-0.039 0.2 0.031 0.227 0.14 0.016 0.054-0.078 0.287-0.278 0.703z"></path>
<path fill="#000" style="fill: var(--color4, #000)" d="M26.607 23.662c0 0.066-0.039 0.132-0.086 0.256l-0.078 0.241c-0.078 0.264-0.192 0.489-0.231 0.773-0.023 0.089-0.059 0.276-0.035 0.342 0.023 0.050 0.027 0.074 0.086 0.039 0.031-0.019 0.313-0.307 0.407-0.408 0.254-0.284 0.548-0.582 0.653-0.843 0.051-0.105 0.094-0.198 0.133-0.295 0.035-0.089 0.082-0.183 0.129-0.284 0.039-0.039 0.078-0.058 0.121-0.058 0.047-0.004 0.102 0.027 0.129 0.082 0.059 0.183-0.016 0.349-0.078 0.505l-0.086 0.194c-0.070 0.194-0.231 0.676-0.203 0.788 0.023 0.085 0.059 0.148 0.106 0.136 0.106-0.039 0.352-0.241 0.466-0.346 0.035-0.043 0.094-0.101 0.129-0.14 0.094-0.101 0.188-0.202 0.219-0.202 0.070 0 0.137-0.004 0.145 0.097 0.008 0.151-0.133 0.295-0.168 0.326l-0.184 0.198c-0.16 0.155-0.411 0.353-0.583 0.388-0.266 0.050-0.383-0.062-0.438-0.221-0.020-0.066-0.055-0.218-0.059-0.315-0.125 0.124-0.16 0.186-0.301 0.326-0.082 0.101-0.52 0.524-0.618 0.544-0.149 0.031-0.329-0.089-0.372-0.392-0.074-0.338 0.235-1.243 0.309-1.429 0.063-0.163 0.18-0.416 0.305-0.435 0.063-0.015 0.196 0.008 0.184 0.132zM27.276 23.068c-0.321 0.070-0.708-0.070-0.739-0.225-0.023-0.124 0.027-0.167 0.137-0.186 0.027-0.004 0.070 0.016 0.129 0.047 0.113 0.050 0.274 0.136 0.426 0.093 0.215-0.058 0.419-0.303 0.559-0.478 0.070-0.093 0.129-0.163 0.164-0.171 0.094-0.019 0.145-0.027 0.164 0.113 0.012 0.105-0.286 0.695-0.841 0.808z"></path>
<path fill="#000" style="fill: var(--color4, #000)" d="M29.252 25.080c-0.133 0.027-0.278-0.070-0.305-0.202-0.020-0.093 0.106-0.21 0.227-0.237 0.137-0.027 0.309 0.050 0.336 0.183 0.023 0.116-0.113 0.229-0.258 0.256zM30.069 21.837c-0.043 0.26-0.11 0.517-0.184 0.761-0.125 0.4-0.207 0.652-0.246 0.75-0.11 0.264-0.211 0.412-0.309 0.431-0.086 0.015-0.133-0.039-0.152-0.113-0.012-0.050 0.035-0.221 0.129-0.497 0.156-0.447 0.25-0.703 0.266-0.773 0.023-0.070 0.074-0.322 0.156-0.757 0.055-0.28 0.113-0.431 0.18-0.451 0.070-0.031 0.184 0.012 0.203 0.128 0.016 0.085 0 0.256-0.043 0.52z"></path>
<path fill="#fff" style="fill: var(--color1, #fff)" d="M9.349 27.336l-0.215 0.326c0.117 0.047 0.368 0.276 0.383 0.501 0.125-0.070 0.724-0.346 0.759-0.349 0.086-0.016 0.129 0.074 0.145 0.163 0.004 0.012-0.661 0.384-0.884 0.532-0.168 0.54-0.325 0.812-0.653 1.348-0.329 0.54-1.048 1.266-1.346 1.336-0.258 0.062-0.407-0.124-0.434-0.284-0.184-1.13 1.138-1.903 2.061-2.54 0.008-0.078-0.035-0.183-0.047-0.241-0.004-0.016-0.113-0.14-0.242-0.198-0.094-0.047-0.141-0.074-0.153-0.136-0.004-0.054 0.094-0.155 0.262-0.408 0.129-0.19 0.258-0.443 0.235-0.606-0.016-0.070-0.086-0.163-0.156-0.148-0.117 0.023-0.219 0.085-0.379 0.229-0.254 0.229-0.473 0.451-0.575 0.462-0.117 0.015-0.18-0.023-0.2-0.132-0.012-0.14 0.458-0.501 0.575-0.602 0.196-0.163 0.493-0.299 0.567-0.315 0.239-0.047 0.446 0.167 0.477 0.419 0.016 0.221-0.094 0.509-0.18 0.641zM9.119 28.758c-0.293 0.186-1.811 1.177-1.674 2.019 0.008 0.070 0.035 0.058 0.098 0.047 0.106-0.019 0.708-0.598 0.982-0.979 0.278-0.392 0.481-0.823 0.595-1.087z"></path>
<path fill="#fff" style="fill: var(--color1, #fff)" d="M12.49 27.833c-0.188 0.225-0.372 0.357-0.552 0.392-0.149 0.031-0.262 0.012-0.34-0.058-0.055-0.054-0.090-0.124-0.106-0.21-0.024-0.12-0.012-0.295 0.012-0.447l-0.485 0.594c-0.211 0.237-0.399 0.369-0.555 0.4s-0.301-0.078-0.325-0.186c-0.016-0.085 0.047-0.272 0.188-0.555s0.309-0.548 0.493-0.8c0.176-0.229 0.297-0.384 0.368-0.47 0.246-0.291 0.45-0.458 0.598-0.485 0.11-0.023 0.215-0.008 0.309 0.047 0.078-0.062 0.153-0.171 0.192-0.179 0.094-0.019 0.149 0.023 0.172 0.132 0.008 0.039-0.008 0.105-0.047 0.175l-0.153 0.264c-0.149 0.249-0.25 0.458-0.321 0.621-0.11 0.26-0.149 0.47-0.113 0.637 0.020 0.093 0.055 0.155 0.125 0.144 0.156-0.031 0.325-0.171 0.508-0.419l0.301-0.416c0.016-0.019 0.031-0.031 0.047-0.035 0.063-0.012 0.106 0.019 0.121 0.101 0.012 0.070 0 0.12-0.055 0.202-0.239 0.346-0.364 0.532-0.383 0.552zM11.696 26.567c-0.008-0.035-0.024-0.050-0.051-0.043-0.11 0.023-0.317 0.252-0.61 0.691-0.297 0.439-0.422 0.68-0.372 0.722s0.227-0.128 0.528-0.501c0.301-0.381 0.469-0.629 0.501-0.734 0.008-0.047 0.012-0.089 0.004-0.136z"></path>
<path fill="#fff" style="fill: var(--color1, #fff)" d="M14.372 27.061c-0.239 0.256-0.438 0.451-0.598 0.583-0.254 0.198-0.489 0.322-0.696 0.361-0.231 0.047-0.462-0.082-0.508-0.33-0.024-0.12 0.024-0.33 0.145-0.625 0.133-0.318 0.293-0.582 0.481-0.796 0.141-0.163 0.305-0.311 0.481-0.439 0.184-0.136 0.325-0.214 0.426-0.233 0.203-0.039 0.246 0 0.27 0.113 0.012 0.050-0.004 0.101-0.051 0.14-0.078 0.082-0.352 0.163-0.583 0.353-0.137 0.116-0.278 0.264-0.403 0.443-0.11 0.148-0.2 0.318-0.282 0.509s-0.117 0.318-0.098 0.408c0.012 0.062 0.066 0.093 0.156 0.082 0.184-0.035 0.411-0.171 0.669-0.404 0.086-0.078 0.215-0.21 0.403-0.392 0.094-0.097 0.223-0.233 0.278-0.241 0.074-0.016 0.121 0.008 0.133 0.058 0.016 0.116-0.066 0.245-0.223 0.412z"></path>
<path fill="#fff" style="fill: var(--color1, #fff)" d="M14.536 26.921c0 0.054-0.117 0.284-0.102 0.373 0.020 0.093 0.024 0.12 0.094 0.109 0.137-0.027 0.305-0.151 0.692-0.742 0.133-0.233 0.246-0.513 0.505-0.928 0.188-0.291 0.442-0.497 0.505-0.509s0.145 0.031 0.156 0.093c0.031 0.167-0.043 0.412-0.090 0.614l-0.106 0.454c-0.043 0.183-0.133 0.567-0.129 0.586 0.016 0.074 0.043 0.105 0.090 0.097 0.086-0.070 0.203-0.159 0.297-0.284l0.407-0.489c0.282-0.342 0.473-0.901 0.802-0.967 0.063-0.012 0.098 0.012 0.11 0.074 0.031 0.167-0.059 0.392-0.117 0.586l-0.141 0.462c-0.059 0.179-0.106 0.353-0.102 0.369 0.016 0.074 0.043 0.105 0.086 0.097 0.039-0.008 0.203-0.151 0.411-0.322 0.203-0.179 0.321-0.264 0.336-0.268 0.055-0.016 0.090 0.004 0.106 0.082 0.016 0.085-0.117 0.26-0.407 0.513-0.293 0.252-0.387 0.369-0.544 0.4-0.149 0.031-0.274-0.101-0.309-0.217-0.059-0.214 0.055-0.536 0.188-0.893-0.188 0.233-0.336 0.478-0.661 0.831-0.262 0.284-0.411 0.404-0.567 0.431-0.149 0.031-0.278-0.101-0.309-0.218-0.024-0.097 0.051-0.532 0.082-0.699 0.027-0.132 0.113-0.451 0.168-0.656l-0.501 0.913c-0.352 0.641-0.649 0.831-0.982 0.905-0.219 0.047-0.36-0.101-0.383-0.229-0.031-0.159 0.055-0.66 0.274-0.703 0.102-0.027 0.141 0.082 0.141 0.136z"></path>
<path fill="#fff" style="fill: var(--color1, #fff)" d="M20.509 26.265c-0.188 0.225-0.372 0.357-0.552 0.392-0.149 0.031-0.262 0.008-0.34-0.058-0.055-0.054-0.090-0.124-0.106-0.21-0.023-0.12-0.012-0.295 0.012-0.451l-0.485 0.594c-0.211 0.237-0.399 0.369-0.555 0.4s-0.301-0.078-0.325-0.186c-0.016-0.085 0.047-0.272 0.188-0.555s0.309-0.548 0.493-0.8c0.176-0.229 0.297-0.384 0.368-0.47 0.246-0.291 0.45-0.458 0.598-0.485 0.11-0.023 0.215-0.008 0.309 0.047 0.078-0.062 0.153-0.171 0.192-0.179 0.094-0.019 0.149 0.023 0.172 0.132 0.008 0.039-0.008 0.105-0.047 0.175l-0.153 0.26c-0.149 0.248-0.25 0.458-0.321 0.621-0.11 0.26-0.149 0.47-0.113 0.637 0.020 0.093 0.055 0.155 0.125 0.144 0.156-0.031 0.325-0.171 0.508-0.419l0.301-0.416c0.016-0.019 0.031-0.031 0.047-0.035 0.063-0.012 0.106 0.019 0.121 0.101 0.012 0.070 0 0.12-0.055 0.202-0.239 0.353-0.364 0.536-0.383 0.559zM19.711 24.998c-0.008-0.035-0.023-0.050-0.051-0.043-0.11 0.023-0.317 0.252-0.61 0.691-0.297 0.439-0.422 0.676-0.372 0.722 0.051 0.043 0.227-0.128 0.528-0.501 0.301-0.381 0.469-0.629 0.501-0.734 0.008-0.050 0.012-0.089 0.004-0.136z"></path>
<path fill="#fff" style="fill: var(--color1, #fff)" d="M22.77 24.649l-0.747 0.672c0.137 0.171 0.305 0.326 0.497 0.47 0.149 0.109 0.223 0.183 0.235 0.233 0.016 0.085-0.008 0.132-0.078 0.148-0.133 0.027-0.278-0.012-0.434-0.105-0.18-0.113-0.336-0.28-0.481-0.482-0.54 0.563-0.821 0.851-0.931 0.874-0.156 0.031-0.192-0.050-0.227-0.229-0.027-0.132 0.051-0.431 0.235-0.909 0.239-0.641 0.552-1.243 0.7-1.46 0.153-0.221 0.254-0.346 0.336-0.361 0.074-0.016 0.11 0.039 0.129 0.148 0.008 0.027-0.004 0.155-0.164 0.412-0.219 0.353-0.462 0.75-0.708 1.414l-0.121 0.357c0.149-0.105 0.332-0.268 0.548-0.47 0.176-0.171 0.313-0.299 0.403-0.384l0.849-0.796c0.278-0.264 0.434-0.4 0.477-0.408 0.086-0.015 0.133 0.004 0.145 0.054 0.031 0.171-0.117 0.334-0.661 0.823z"></path>
<path fill="#fff" style="fill: var(--color1, #fff)" d="M25.125 24.257c-0.113 0.342-0.192 0.61-0.254 0.8-0.11 0.33-0.211 0.594-0.313 0.812-0.149 0.338-0.336 0.656-0.567 0.944-0.344 0.447-0.7 0.734-1.076 0.835-0.176 0.050-0.395-0.023-0.438-0.179-0.031-0.089-0.016-0.229 0.125-0.268 0.067-0.019 0.129-0.008 0.176 0.047 0.047 0.050 0.11 0.066 0.184 0.043 0.227-0.062 0.501-0.315 0.821-0.75 0.364-0.489 0.598-0.967 0.704-1.441l-0.020-0.016c-0.203 0.284-0.336 0.458-0.391 0.517-0.176 0.194-0.344 0.311-0.52 0.365-0.141 0.039-0.246 0.035-0.317-0.023-0.039-0.047-0.082-0.116-0.11-0.21-0.059-0.21-0.031-0.501 0.086-0.862 0.102-0.307 0.235-0.598 0.407-0.889 0.184-0.287 0.309-0.435 0.395-0.447 0.090-0.004 0.141 0.019 0.16 0.085 0.016 0.047-0.004 0.101-0.043 0.175l-0.262 0.419c-0.102 0.186-0.203 0.427-0.305 0.726-0.098 0.299-0.133 0.485-0.11 0.555 0.023 0.089 0.043 0.093 0.149 0.058 0.063-0.019 0.16-0.101 0.293-0.248 0.035-0.035 0.262-0.318 0.681-0.858 0.2-0.586 0.434-0.99 0.591-1.033 0.137-0.039 0.2 0.031 0.227 0.14 0.020 0.058-0.074 0.291-0.274 0.703z"></path>
<path fill="#fff" style="fill: var(--color1, #fff)" d="M26.157 23.449c0 0.066-0.039 0.132-0.086 0.256l-0.078 0.241c-0.078 0.264-0.192 0.489-0.231 0.773-0.023 0.089-0.059 0.276-0.035 0.342 0.023 0.050 0.027 0.074 0.086 0.039 0.031-0.019 0.313-0.307 0.407-0.408 0.254-0.284 0.548-0.583 0.653-0.843 0.051-0.105 0.094-0.198 0.133-0.295 0.035-0.089 0.082-0.183 0.129-0.284 0.039-0.039 0.078-0.058 0.121-0.058 0.047-0.004 0.102 0.027 0.129 0.082 0.059 0.183-0.016 0.35-0.078 0.505l-0.086 0.194c-0.070 0.194-0.231 0.676-0.203 0.788 0.023 0.085 0.059 0.148 0.106 0.136 0.106-0.039 0.352-0.241 0.466-0.346 0.035-0.043 0.094-0.101 0.129-0.14 0.094-0.101 0.188-0.202 0.219-0.202 0.070 0 0.137-0.004 0.145 0.097 0.008 0.151-0.133 0.295-0.168 0.326l-0.184 0.198c-0.16 0.155-0.411 0.353-0.583 0.388-0.266 0.050-0.383-0.062-0.438-0.221-0.020-0.066-0.055-0.218-0.059-0.315-0.125 0.124-0.16 0.186-0.301 0.326-0.082 0.101-0.52 0.524-0.618 0.544-0.149 0.031-0.329-0.089-0.372-0.392-0.074-0.338 0.235-1.243 0.309-1.429 0.063-0.163 0.18-0.416 0.305-0.435 0.067-0.019 0.196 0.004 0.184 0.132zM26.826 22.855c-0.321 0.070-0.708-0.070-0.739-0.225-0.023-0.124 0.027-0.167 0.137-0.186 0.027-0.004 0.070 0.015 0.129 0.047 0.113 0.050 0.274 0.136 0.426 0.093 0.215-0.058 0.419-0.303 0.559-0.478 0.070-0.093 0.129-0.163 0.164-0.171 0.094-0.019 0.145-0.027 0.164 0.113 0.016 0.105-0.282 0.691-0.841 0.808z"></path>
<path fill="#fff" style="fill: var(--color1, #fff)" d="M28.802 24.866c-0.133 0.027-0.278-0.070-0.305-0.202-0.020-0.093 0.106-0.21 0.227-0.237 0.137-0.027 0.309 0.050 0.336 0.183 0.027 0.116-0.113 0.225-0.258 0.256zM29.619 21.623c-0.043 0.26-0.11 0.517-0.184 0.761-0.125 0.4-0.207 0.652-0.246 0.75-0.11 0.264-0.211 0.412-0.309 0.431-0.086 0.016-0.133-0.039-0.152-0.113-0.012-0.050 0.035-0.221 0.129-0.497 0.156-0.447 0.25-0.703 0.266-0.773 0.023-0.070 0.074-0.322 0.156-0.757 0.055-0.28 0.113-0.431 0.18-0.451 0.070-0.031 0.184 0.012 0.203 0.128 0.016 0.085 0 0.252-0.043 0.52z"></path>
</symbol>
<symbol id="money" viewBox="0 0 32 32">
<path fill="none" stroke="currentColor" stroke-linejoin="round" stroke-linecap="round" stroke-miterlimit="4" stroke-width="2.5043" d="M15.846 22.041c0 3.707 3.005 6.712 6.712 6.712s6.713-3.005 6.713-6.712c0-3.707-3.005-6.713-6.712-6.713s-6.712 3.005-6.712 6.713zM15.846 22.041c0-1.512 0.499-2.906 1.342-4.028v-12.082M15.846 22.041c0 1.108 0.268 2.153 0.744 3.074-1.131 0.955-3.743 1.624-6.785 1.624-4.078 0-7.384-1.202-7.384-2.685v-18.124M17.189 5.932c0 1.483-3.306 2.685-7.384 2.685s-7.384-1.202-7.384-2.685M17.189 5.932c0-1.483-3.306-2.685-7.384-2.685s-7.384 1.202-7.384 2.685M2.421 18.014c0 1.483 3.306 2.685 7.384 2.685 2.939 0 5.476-0.624 6.665-1.528M17.189 11.973c0 1.483-3.306 2.685-7.384 2.685s-7.384-1.202-7.384-2.685"></path>
<path d="M22.529 26.068c-0.428 0-0.802-0.064-1.125-0.191-0.315-0.127-0.581-0.3-0.799-0.517-0.21-0.218-0.371-0.469-0.484-0.754-0.105-0.285-0.157-0.589-0.157-0.911 0-0.060 0-0.116 0-0.169 0.008-0.052 0.015-0.105 0.023-0.157h-0.799v-1.012h1.215l1.451-0.765h-2.666v-1.012h4.039c0.037-0.112 0.056-0.233 0.056-0.36 0-0.323-0.086-0.555-0.259-0.697-0.165-0.142-0.401-0.214-0.709-0.214-0.27 0-0.529 0.056-0.776 0.169-0.24 0.105-0.446 0.255-0.619 0.45l-0.833-1.046c0.24-0.277 0.563-0.502 0.968-0.675 0.413-0.173 0.855-0.259 1.327-0.259 0.382 0 0.724 0.056 1.024 0.169s0.551 0.266 0.754 0.461c0.21 0.195 0.367 0.42 0.473 0.675 0.112 0.255 0.169 0.521 0.169 0.799 0 0.082-0.004 0.169-0.011 0.259s-0.023 0.18-0.045 0.27h0.833v1.012h-1.339l-1.395 0.765h2.734v1.012h-4.061c-0.023 0.090-0.034 0.184-0.034 0.281 0 0.367 0.098 0.641 0.293 0.821 0.202 0.18 0.476 0.27 0.821 0.27 0.263 0 0.514-0.060 0.754-0.18s0.495-0.326 0.765-0.619l0.855 1.046c-0.262 0.315-0.6 0.574-1.012 0.776s-0.889 0.304-1.429 0.304z"></path>
</symbol>
<symbol id="cart" viewBox="0 0 32 32">
<path d="M23.454 26.24c0 1.408 1.152 2.56 2.56 2.56s2.56-1.152 2.56-2.56c0-1.408-1.152-2.56-2.56-2.56s-2.56 1.152-2.56 2.56z"></path>
<path d="M9.374 26.24c0 1.408 1.152 2.56 2.56 2.56s2.56-1.152 2.56-2.56-1.152-2.56-2.56-2.56c-1.408 0-2.56 1.152-2.56 2.56z"></path>
<path fill="none" stroke="currentColor"  stroke-linejoin="miter" stroke-linecap="butt" stroke-miterlimit="4" stroke-width="2.3040" d="M11.118 19.836l-0.039-0.031-0.042-0.028c-0.433-0.288-0.708-0.74-0.929-1.497l-2.142-10.083v-0.122l-1.236-6.027h-5.036c-0.064 0-0.098-0.010-0.11-0.015-0.001-0-0.001-0-0.002-0.001s-0-0.001-0.001-0.002c-0.005-0.012-0.015-0.047-0.015-0.11s0.010-0.098 0.015-0.11c0-0.001 0-0.001 0.001-0.002s0.001-0 0.002-0.001c0.012-0.005 0.047-0.015 0.11-0.015h5.12c0.087 0 0.118 0.024 0.12 0.026v0c0.002 0.002 0.005 0.004 0.009 0.011s0.014 0.025 0.021 0.061l1.209 6.046h21.68c0.034 0 0.057 0.003 0.070 0.006l0.051 0.077c0.002 0.017 0.003 0.039 0.004 0.065 0.002 0.038 0.002 0.078 0.003 0.124l-2.032 10.158-0.004 0.032c-0.078 0.546-0.389 1.035-0.907 1.38l-0.042 0.028-0.039 0.031c-0.377 0.302-1.12 0.516-1.712 0.516h-12.544c-0.66 0-1.168-0.183-1.584-0.516z"></path>
</symbol>
<symbol id="heart" viewBox="0 0 32 32">
<path fill="none" stroke="currentColor" stroke-linejoin="miter" stroke-linecap="butt" stroke-miterlimit="4" stroke-width="2.3040" d="M16.232 6.344l0.823 0.839 0.823-0.839c1.214-1.238 2.864-1.992 4.703-1.992 3.755 0 6.763 3.179 6.763 7.047 0 2.051-0.835 3.871-2.189 5.184l-0.015 0.015-10.084 10.536-10.164-10.616c-1.319-1.311-2.124-3.134-2.124-5.119 0-3.869 3.008-7.047 6.763-7.047 1.839 0 3.489 0.753 4.703 1.992z"></path>
</symbol>
<symbol id="menu" viewBox="0 0 32 32">
<path stroke-linejoin="round" stroke-linecap="round" stroke-miterlimit="10" stroke-width="2.5905" d="M6.716 13.206h2.794c2.794 0 4.19-1.397 4.19-4.19v-2.794c0-2.794-1.397-4.19-4.19-4.19h-2.794c-2.794 0-4.19 1.397-4.19 4.19v2.794c0 2.794 1.397 4.19 4.19 4.19z"></path>
<path stroke-linejoin="round" stroke-linecap="round" stroke-miterlimit="10" stroke-width="2.5905" d="M23.475 13.206h2.794c2.794 0 4.19-1.397 4.19-4.19v-2.794c0-2.794-1.397-4.19-4.19-4.19h-2.794c-2.794 0-4.19 1.397-4.19 4.19v2.794c0 2.794 1.397 4.19 4.19 4.19z"></path>
<path stroke-linejoin="round" stroke-linecap="round" stroke-miterlimit="10" stroke-width="2.5905" d="M23.475 29.969h2.794c2.794 0 4.19-1.397 4.19-4.19v-2.794c0-2.794-1.397-4.19-4.19-4.19h-2.794c-2.794 0-4.19 1.397-4.19 4.19v2.794c0 2.794 1.397 4.19 4.19 4.19z"></path>
<path stroke-linejoin="round" stroke-linecap="round" stroke-miterlimit="10" stroke-width="2.5905" d="M6.716 29.969h2.794c2.794 0 4.19-1.397 4.19-4.19v-2.794c0-2.794-1.397-4.19-4.19-4.19h-2.794c-2.794 0-4.19 1.397-4.19 4.19v2.794c0 2.794 1.397 4.19 4.19 4.19z"></path>
</symbol>
<symbol id="search" viewBox="0 0 25 25">
<path fill="none" stroke="currentColor" stroke-width="1.8" d="M15.5771 16.051L15.052 15.5697L14.4629 15.9702C13.3624 16.7183 12.0344 17.1555 10.6015 17.1555C6.80302 17.1555 3.72373 14.0763 3.72373 10.2778C3.72373 6.47929 6.80303 3.4 10.6015 3.4C14.4 3.4 17.4793 6.4793 17.4793 10.2778C17.4793 11.934 16.895 13.4514 15.9203 14.6386L15.3796 15.2972L16.0078 15.8731L21.8552 21.2331C21.9413 21.312 21.9469 21.4457 21.8683 21.5315C21.7896 21.6174 21.656 21.6233 21.57 21.5445C21.57 21.5445 21.5699 21.5445 21.5699 21.5444L15.5771 16.051Z" />
</symbol>
<symbol id="arrow" viewBox="0 0 32 32">
<path fill="none" stroke="currentColor" stroke-linejoin="round" stroke-linecap="round" stroke-miterlimit="4" stroke-width="3.2" d="M12 24l8-8-8-8"></path>
</symbol>

<symbol id="cart-hero" viewBox="0 0 33 32">
<path fill="none" stroke="currentColor" stroke-linejoin="round" stroke-linecap="round" stroke-miterlimit="10" stroke-width="1.152" d="M11.96 2.667l-4.827 4.84"></path>
<path fill="none" stroke="currentColor" stroke-linejoin="round" stroke-linecap="round" stroke-miterlimit="10" stroke-width="1.152" d="M20.467 2.667l4.827 4.84"></path>
<path fill="none" stroke="currentColor" stroke-linejoin="miter" stroke-linecap="butt" stroke-miterlimit="4" stroke-width="1.152" d="M2.88 10.467c0-2.467 1.32-2.667 2.96-2.667h20.747c1.64 0 2.96 0.2 2.96 2.667 0 2.867-1.32 2.667-2.96 2.667h-20.747c-1.64 0-2.96 0.2-2.96-2.667z"></path>
<path fill="none" stroke="currentColor" stroke-linejoin="round" stroke-linecap="round" stroke-miterlimit="4" stroke-width="1.152" d="M12.213 18.762h5.714M17.928 18.762c0 0.789 0.64 1.429 1.429 1.429s1.429-0.64 1.429-1.429c0-0.789-0.64-1.429-1.429-1.429s-1.429 0.64-1.429 1.429zM15.071 23.905h5.714M15.071 23.905c0 0.789-0.64 1.429-1.429 1.429s-1.429-0.64-1.429-1.429c0-0.789 0.64-1.429 1.429-1.429s1.429 0.64 1.429 1.429z"></path>
<path fill="none" stroke="currentColor" stroke-linejoin="miter" stroke-linecap="round" stroke-miterlimit="4" stroke-width="1.152" d="M4.88 13.333l1.88 11.52c0.427 2.587 1.453 4.48 5.267 4.48h8.040c4.147 0 4.76-1.813 5.24-4.32l2.24-11.68"></path>
</symbol>

<symbol id="boxes" viewBox="0 0 32 32">
<path fill="none" stroke="currentColor" stroke-linejoin="round" stroke-linecap="round" stroke-miterlimit="4" stroke-width="1.152" d="M29.333 20c0 5.16-4.173 9.333-9.333 9.333l1.4-2.333"></path>
<path fill="none" stroke="currentColor" stroke-linejoin="round" stroke-linecap="round" stroke-miterlimit="4" stroke-width="1.152" d="M2.667 12c0-5.16 4.173-9.333 9.333-9.333l-1.4 2.333"></path>
<path fill="none" stroke="currentColor" stroke-linejoin="round" stroke-linecap="round" stroke-miterlimit="4" stroke-width="1.152" d="M18.266 5.933l5.307 3.067 5.253-3.053"></path>
<path fill="none" stroke="currentColor" stroke-linejoin="round" stroke-linecap="round" stroke-miterlimit="4" stroke-width="1.152" d="M23.573 14.427v-5.44"></path>
<path fill="none" stroke="currentColor" stroke-linejoin="round" stroke-linecap="round" stroke-miterlimit="4" stroke-width="1.152" d="M22.319 2.947l-3.2 1.773c-0.72 0.4-1.32 1.413-1.32 2.24v3.387c0 0.827 0.587 1.84 1.32 2.24l3.2 1.773c0.68 0.387 1.8 0.387 2.493 0l3.2-1.773c0.72-0.4 1.32-1.413 1.32-2.24v-3.387c0-0.827-0.587-1.84-1.32-2.24l-3.2-1.773c-0.68-0.373-1.8-0.373-2.493 0z"></path>
<path fill="none" stroke="currentColor" stroke-linejoin="round" stroke-linecap="round" stroke-miterlimit="4" stroke-width="1.152" d="M3.133 20.6l5.293 3.067 5.267-3.053"></path>
<path fill="none" stroke="currentColor" stroke-linejoin="round" stroke-linecap="round" stroke-miterlimit="4" stroke-width="1.152" d="M8.427 29.093v-5.44"></path>
<path fill="none" stroke="currentColor" stroke-linejoin="round" stroke-linecap="round" stroke-miterlimit="4" stroke-width="1.152" d="M7.187 17.613l-3.2 1.773c-0.72 0.4-1.32 1.413-1.32 2.24v3.387c0 0.827 0.587 1.84 1.32 2.24l3.2 1.773c0.68 0.387 1.8 0.387 2.493 0l3.2-1.773c0.72-0.4 1.32-1.413 1.32-2.24v-3.387c0-0.827-0.587-1.84-1.32-2.24l-3.2-1.773c-0.693-0.373-1.813-0.373-2.493 0z"></path>
</symbol>

<symbol id="chart" viewBox="0 0 33 32">
<path fill="none" stroke="currentColor" stroke-linejoin="round" stroke-linecap="round" stroke-miterlimit="4" stroke-width="1.152" d="M23.982 29.333l-7.407-5.926-7.407 5.926M8.871 23.407h15.407c2.489 0 3.734 0 4.684-0.484 0.836-0.426 1.516-1.106 1.942-1.942 0.484-0.951 0.484-2.195 0.484-4.684v-6.519c0-2.489 0-3.734-0.484-4.684-0.426-0.836-1.106-1.516-1.942-1.942-0.951-0.484-2.195-0.484-4.684-0.484h-15.407c-2.489 0-3.734 0-4.684 0.484-0.836 0.426-1.516 1.106-1.942 1.942-0.484 0.951-0.484 2.195-0.484 4.684v6.519c0 2.489 0 3.734 0.484 4.684 0.426 0.836 1.106 1.516 1.942 1.942 0.951 0.484 2.195 0.484 4.684 0.484z"></path>
<path fill="none" stroke="currentColor" stroke-linejoin="round" stroke-linecap="round" stroke-miterlimit="4" stroke-width="1.152" d="M19.537 13.037h-8.889M13.611 17.481h-2.963M22.5 8.592h-11.852"></path>
</symbol>

<symbol id="pig" viewBox="0 0 33 32">
<path fill="none" stroke="currentColor" style="stroke: var(--color1, #000)" stroke-linejoin="round" stroke-linecap="round" stroke-miterlimit="4" stroke-width="1.152" d="M5.991 17.481c0 2.442 0.985 4.654 2.579 6.261 0.154 0.155 0.231 0.232 0.276 0.307 0.043 0.071 0.068 0.132 0.088 0.213 0.020 0.085 0.020 0.181 0.020 0.374v3.511c0 0.415 0 0.622 0.081 0.781 0.071 0.139 0.184 0.253 0.324 0.324 0.158 0.081 0.366 0.081 0.781 0.081h2.815c0.415 0 0.622 0 0.781-0.081 0.139-0.071 0.253-0.184 0.324-0.324 0.081-0.158 0.081-0.366 0.081-0.781v-0.593c0-0.415 0-0.622 0.081-0.781 0.071-0.139 0.184-0.253 0.324-0.324 0.158-0.081 0.366-0.081 0.781-0.081h2.074c0.415 0 0.622 0 0.781 0.081 0.139 0.071 0.253 0.184 0.324 0.324 0.081 0.158 0.081 0.366 0.081 0.781v0.593c0 0.415 0 0.622 0.081 0.781 0.071 0.139 0.184 0.253 0.324 0.324 0.158 0.081 0.366 0.081 0.781 0.081h2.815c0.415 0 0.622 0 0.781-0.081 0.139-0.071 0.253-0.184 0.324-0.324 0.081-0.158 0.081-0.366 0.081-0.781v-1.445c0-0.299 0-0.449 0.043-0.569 0.041-0.115 0.092-0.196 0.18-0.281 0.091-0.089 0.245-0.161 0.554-0.304 1.455-0.676 2.697-1.733 3.596-3.044 0.158-0.231 0.237-0.346 0.322-0.414 0.081-0.065 0.153-0.103 0.253-0.133 0.104-0.031 0.227-0.031 0.474-0.031h0.802c0.415 0 0.622 0 0.781-0.081 0.139-0.071 0.253-0.184 0.324-0.324 0.081-0.158 0.081-0.366 0.081-0.781v-5.058c0-0.395 0-0.592-0.073-0.745-0.073-0.151-0.195-0.273-0.346-0.346-0.152-0.073-0.35-0.073-0.745-0.073-0.286 0-0.429 0-0.544-0.039-0.124-0.042-0.211-0.098-0.301-0.193-0.084-0.088-0.152-0.236-0.288-0.531-0.438-0.947-1.037-1.804-1.763-2.535-0.154-0.155-0.231-0.232-0.276-0.307-0.043-0.071-0.069-0.132-0.088-0.213-0.020-0.085-0.020-0.181-0.020-0.374v-1.644c0-0.533 0-0.8-0.111-0.979-0.097-0.157-0.25-0.272-0.428-0.322-0.203-0.058-0.459 0.016-0.972 0.162l-3.515 1.004c-0.060 0.017-0.090 0.026-0.12 0.032-0.027 0.005-0.054 0.009-0.082 0.011-0.031 0.003-0.062 0.003-0.124 0.003h-0.635M5.991 17.481c0-3.413 1.924-6.378 4.747-7.867M5.991 17.481h-1.481c-1.636 0-2.963-1.327-2.963-2.963 0-1.097 0.596-2.054 1.482-2.567M20.806 7.852c0 2.864-2.321 5.185-5.185 5.185s-5.185-2.321-5.185-5.185c0-2.864 2.321-5.185 5.185-5.185s5.185 2.321 5.185 5.185z"></path>
<path d="M15.651 10.72c-0.307 0-0.576-0.046-0.807-0.137-0.226-0.091-0.417-0.215-0.573-0.371-0.151-0.156-0.266-0.336-0.347-0.541-0.075-0.204-0.113-0.422-0.113-0.654 0-0.043 0-0.083 0-0.121 0.005-0.038 0.011-0.075 0.016-0.113h-0.573v-0.726h0.872l1.041-0.549h-1.913v-0.726h2.897c0.027-0.081 0.040-0.167 0.040-0.258 0-0.231-0.062-0.398-0.186-0.5-0.118-0.102-0.288-0.153-0.508-0.153-0.194 0-0.379 0.040-0.557 0.121-0.172 0.075-0.32 0.183-0.444 0.323l-0.597-0.751c0.172-0.199 0.403-0.36 0.694-0.484 0.296-0.124 0.613-0.186 0.952-0.186 0.274 0 0.519 0.040 0.734 0.121s0.395 0.191 0.541 0.331c0.151 0.14 0.264 0.301 0.339 0.484 0.081 0.183 0.121 0.374 0.121 0.573 0 0.059-0.003 0.121-0.008 0.186s-0.016 0.129-0.032 0.194h0.597v0.726h-0.96l-1.001 0.549h1.961v0.726h-2.913c-0.016 0.065-0.024 0.132-0.024 0.202 0 0.264 0.070 0.46 0.21 0.589 0.145 0.129 0.342 0.194 0.589 0.194 0.188 0 0.368-0.043 0.541-0.129s0.355-0.234 0.549-0.444l0.613 0.75c-0.188 0.226-0.43 0.412-0.726 0.557s-0.638 0.218-1.025 0.218z"></path>
</symbol>

<symbol id="search-hero" viewBox="0 0 32 32">
<path fill="none" stroke="currentColor" stroke-linejoin="round" stroke-linecap="round" stroke-miterlimit="4" stroke-width="1.152" d="M26.946 15.132v-5.284c0-2.485-0.267-4.403-1.42-5.636-1.174-1.254-3.019-1.546-5.365-1.546h-9.377c-2.346 0-4.191 0.292-5.365 1.546-1.153 1.232-1.42 3.151-1.42 5.636v13.966c0 0.9 0.122 1.696 0.386 2.344 0.265 0.651 0.703 1.212 1.356 1.493 0.66 0.284 1.366 0.208 2.011-0.070 0.632-0.273 1.254-0.757 1.853-1.397l0.002-0.002 0.018-0.019c0.624-0.662 1.494-0.606 2.026 0.105l1.253 1.674c0.308 0.411 0.891 0.495 1.302 0.188s0.495-0.891 0.188-1.302"></path>
<path fill="none" stroke="currentColor" stroke-linejoin="round" stroke-linecap="round" stroke-miterlimit="4" stroke-width="1.152" d="M18.264 23.69c0-2.706 2.193-4.899 4.899-4.899s4.899 2.193 4.899 4.899c0 2.706-2.193 4.899-4.899 4.899s-4.899-2.193-4.899-4.899z"></path>
<path stroke-linejoin="round" stroke-linecap="round" stroke-miterlimit="4" stroke-width="1.152" d="M28.185 28.316l-1.24-1.24"></path>
<path stroke-linejoin="round" stroke-linecap="round" stroke-miterlimit="4" stroke-width="1.152" d="M20.434 10.728h-9.922"></path>
<path stroke-linejoin="round" stroke-linecap="round" stroke-miterlimit="4" stroke-width="1.152" d="M19.194 15.69h-7.442"></path>
</symbol>

<symbol id="home" viewBox="0 0 30 32">
<path fill="#9c9c9c" style="fill: var(--color2, #9c9c9c)" d="M28.099 13.605l-12.248-8.877c-0.236-0.171-0.557-0.171-0.793 0l-12.249 8.877c-0.299 0.217-0.364 0.633-0.145 0.929s0.639 0.36 0.938 0.144l11.852-8.59 11.852 8.589c0.12 0.087 0.258 0.128 0.396 0.128 0.207 0 0.411-0.094 0.542-0.272 0.219-0.296 0.154-0.712-0.145-0.929z"></path>
<path fill="#9c9c9c" style="fill: var(--color2, #9c9c9c)" d="M24.853 14.828c-0.371 0-0.671 0.298-0.671 0.665v10.578h-5.371v-5.774c0-1.832-1.506-3.323-3.357-3.323s-3.357 1.491-3.357 3.323v5.774h-5.371v-10.578c0-0.367-0.301-0.665-0.671-0.665s-0.671 0.298-0.671 0.665v11.243c0 0.367 0.301 0.664 0.671 0.664h6.714c0.353 0 0.642-0.27 0.669-0.613 0.002-0.016 0.003-0.032 0.003-0.052v-6.439c0-1.1 0.904-1.994 2.014-1.994s2.014 0.895 2.014 1.994v6.439c0 0.019 0.001 0.036 0.003 0.051 0.026 0.343 0.315 0.613 0.669 0.613h6.714c0.371 0 0.671-0.298 0.671-0.664v-11.243c0-0.367-0.301-0.665-0.672-0.665z"></path>
</symbol>

</defs>
</svg>
