<svg aria-hidden="true" style="position: absolute; width: 0; height: 0; overflow: hidden;" version="1.1" xmlns="http://www.w3.org/2000/svg" xmlns:xlink="http://www.w3.org/1999/xlink">
<defs>
<symbol id="money" viewBox="0 0 32 32">
<path fill="none" stroke="#000" style="stroke: var(--color1, #000)" stroke-linejoin="round" stroke-linecap="round" stroke-miterlimit="4" stroke-width="2.5043" d="M15.846 22.041c0 3.707 3.005 6.712 6.712 6.712s6.713-3.005 6.713-6.712c0-3.707-3.005-6.713-6.712-6.713s-6.712 3.005-6.712 6.713zM15.846 22.041c0-1.512 0.499-2.906 1.342-4.028v-12.082M15.846 22.041c0 1.108 0.268 2.153 0.744 3.074-1.131 0.955-3.743 1.624-6.785 1.624-4.078 0-7.384-1.202-7.384-2.685v-18.124M17.189 5.932c0 1.483-3.306 2.685-7.384 2.685s-7.384-1.202-7.384-2.685M17.189 5.932c0-1.483-3.306-2.685-7.384-2.685s-7.384 1.202-7.384 2.685M2.421 18.014c0 1.483 3.306 2.685 7.384 2.685 2.939 0 5.476-0.624 6.665-1.528M17.189 11.973c0 1.483-3.306 2.685-7.384 2.685s-7.384-1.202-7.384-2.685"></path>
<path d="M22.529 26.068c-0.428 0-0.802-0.064-1.125-0.191-0.315-0.127-0.581-0.3-0.799-0.517-0.21-0.218-0.371-0.469-0.484-0.754-0.105-0.285-0.157-0.589-0.157-0.911 0-0.060 0-0.116 0-0.169 0.008-0.052 0.015-0.105 0.023-0.157h-0.799v-1.012h1.215l1.451-0.765h-2.666v-1.012h4.039c0.037-0.112 0.056-0.233 0.056-0.36 0-0.323-0.086-0.555-0.259-0.697-0.165-0.142-0.401-0.214-0.709-0.214-0.27 0-0.529 0.056-0.776 0.169-0.24 0.105-0.446 0.255-0.619 0.45l-0.833-1.046c0.24-0.277 0.563-0.502 0.968-0.675 0.413-0.173 0.855-0.259 1.327-0.259 0.382 0 0.724 0.056 1.024 0.169s0.551 0.266 0.754 0.461c0.21 0.195 0.367 0.42 0.473 0.675 0.112 0.255 0.169 0.521 0.169 0.799 0 0.082-0.004 0.169-0.011 0.259s-0.023 0.18-0.045 0.27h0.833v1.012h-1.339l-1.395 0.765h2.734v1.012h-4.061c-0.023 0.090-0.034 0.184-0.034 0.281 0 0.367 0.098 0.641 0.293 0.821 0.202 0.18 0.476 0.27 0.821 0.27 0.263 0 0.514-0.060 0.754-0.18s0.495-0.326 0.765-0.619l0.855 1.046c-0.262 0.315-0.6 0.574-1.012 0.776s-0.889 0.304-1.429 0.304z"></path>
</symbol>
<symbol id="cart" viewBox="0 0 32 32">
<path d="M23.454 26.24c0 1.408 1.152 2.56 2.56 2.56s2.56-1.152 2.56-2.56c0-1.408-1.152-2.56-2.56-2.56s-2.56 1.152-2.56 2.56z"></path>
<path d="M9.374 26.24c0 1.408 1.152 2.56 2.56 2.56s2.56-1.152 2.56-2.56-1.152-2.56-2.56-2.56c-1.408 0-2.56 1.152-2.56 2.56z"></path>
<path fill="none" stroke="#000" style="stroke: var(--color1, #000)" stroke-linejoin="miter" stroke-linecap="butt" stroke-miterlimit="4" stroke-width="2.3040" d="M11.118 19.836l-0.039-0.031-0.042-0.028c-0.433-0.288-0.708-0.74-0.929-1.497l-2.142-10.083v-0.122l-1.236-6.027h-5.036c-0.064 0-0.098-0.010-0.11-0.015-0.001-0-0.001-0-0.002-0.001s-0-0.001-0.001-0.002c-0.005-0.012-0.015-0.047-0.015-0.11s0.010-0.098 0.015-0.11c0-0.001 0-0.001 0.001-0.002s0.001-0 0.002-0.001c0.012-0.005 0.047-0.015 0.11-0.015h5.12c0.087 0 0.118 0.024 0.12 0.026v0c0.002 0.002 0.005 0.004 0.009 0.011s0.014 0.025 0.021 0.061l1.209 6.046h21.68c0.034 0 0.057 0.003 0.070 0.006l0.051 0.077c0.002 0.017 0.003 0.039 0.004 0.065 0.002 0.038 0.002 0.078 0.003 0.124l-2.032 10.158-0.004 0.032c-0.078 0.546-0.389 1.035-0.907 1.38l-0.042 0.028-0.039 0.031c-0.377 0.302-1.12 0.516-1.712 0.516h-12.544c-0.66 0-1.168-0.183-1.584-0.516z"></path>
</symbol>
<symbol id="heart" viewBox="0 0 32 32">
<path stroke-linejoin="miter" stroke-linecap="butt" stroke-miterlimit="4" stroke-width="2.3040" d="M16.232 6.344l0.823 0.839 0.823-0.839c1.214-1.238 2.864-1.992 4.703-1.992 3.755 0 6.763 3.179 6.763 7.047 0 2.051-0.835 3.871-2.189 5.184l-0.015 0.015-10.084 10.536-10.164-10.616c-1.319-1.311-2.124-3.134-2.124-5.119 0-3.869 3.008-7.047 6.763-7.047 1.839 0 3.489 0.753 4.703 1.992z"></path>
</symbol>
<symbol id="menu" viewBox="0 0 32 32">
<path fill="#fff" style="fill: var(--color2, #fff); stroke: var(--color2, #fff)" stroke="#fff" stroke-linejoin="round" stroke-linecap="round" stroke-miterlimit="10" stroke-width="2.5905" d="M6.716 13.206h2.794c2.794 0 4.19-1.397 4.19-4.19v-2.794c0-2.794-1.397-4.19-4.19-4.19h-2.794c-2.794 0-4.19 1.397-4.19 4.19v2.794c0 2.794 1.397 4.19 4.19 4.19z"></path>
<path fill="#fff" style="fill: var(--color2, #fff); stroke: var(--color2, #fff)" stroke="#fff" stroke-linejoin="round" stroke-linecap="round" stroke-miterlimit="10" stroke-width="2.5905" d="M23.475 13.206h2.794c2.794 0 4.19-1.397 4.19-4.19v-2.794c0-2.794-1.397-4.19-4.19-4.19h-2.794c-2.794 0-4.19 1.397-4.19 4.19v2.794c0 2.794 1.397 4.19 4.19 4.19z"></path>
<path fill="#fff" style="fill: var(--color2, #fff); stroke: var(--color2, #fff)" stroke="#fff" stroke-linejoin="round" stroke-linecap="round" stroke-miterlimit="10" stroke-width="2.5905" d="M23.475 29.969h2.794c2.794 0 4.19-1.397 4.19-4.19v-2.794c0-2.794-1.397-4.19-4.19-4.19h-2.794c-2.794 0-4.19 1.397-4.19 4.19v2.794c0 2.794 1.397 4.19 4.19 4.19z"></path>
<path fill="#fff" style="fill: var(--color2, #fff); stroke: var(--color2, #fff)" stroke="#fff" stroke-linejoin="round" stroke-linecap="round" stroke-miterlimit="10" stroke-width="2.5905" d="M6.716 29.969h2.794c2.794 0 4.19-1.397 4.19-4.19v-2.794c0-2.794-1.397-4.19-4.19-4.19h-2.794c-2.794 0-4.19 1.397-4.19 4.19v2.794c0 2.794 1.397 4.19 4.19 4.19z"></path>
</symbol>
<symbol id="search" viewBox="0 0 32 32">
<path stroke-linejoin="miter" stroke-linecap="butt" stroke-miterlimit="4" stroke-width="2.3040" d="M19.939 20.545l-0.672-0.616-0.754 0.513c-1.409 0.958-3.108 1.517-4.943 1.517-4.862 0-8.804-3.941-8.804-8.803s3.941-8.804 8.804-8.804c4.862 0 8.804 3.941 8.804 8.804 0 2.12-0.748 4.062-1.996 5.582l-0.692 0.843 8.289 7.598c0.11 0.101 0.117 0.272 0.017 0.382s-0.272 0.117-0.382 0.017c0 0-0 0-0-0l-7.671-7.032z"></path>
</symbol>
</defs>
</svg>
